<?xml version="1.0" encoding="UTF-8"?>
<svg width="556.88" height="668.44" version="1.1" viewBox="0 0 556.875 668.4375" xmlns="http://www.w3.org/2000/svg">
 <path style="fill:#FF5722;" d="m333.05 667.84c-4.948-1.1131-1.443-2.2191 7.0312-2.2186 15.694 8.2e-4 94.758-2.715 108.05-3.7113 6.9609-0.52191 21.938-1.3877 33.281-1.9239 11.344-0.53624 26.054-1.4417 32.689-2.012 9.5947-0.82482 13.116-0.78456 17.207 0.19672 6.4216 1.5405 14.583 0.1218 17.78-3.0907 3.1227-3.1383 4.7709-13.792 3.2116-20.76-0.64761-2.8939-1.6952-5.2616-2.328-5.2616-0.63281 0-2.1672 1.582-3.4099 3.5156-1.2426 1.9336-3.8151 4.8963-5.7167 6.5838-3.8391 3.407-6.2524 3.8468-31.776 5.7904-6.9609 0.5301-18.352 1.571-25.312 2.3132-29.135 3.1063-57.034 3.746-108.28 2.483-26.812-0.66082-51.07-1.3347-53.906-1.4974-4.3735-0.25102-48.828-1.5251-60.469-1.733-2.0625-0.0369-24.422 0.32685-49.688 0.8082-45.169 0.86053-106.11 0.94409-115.31 0.15811-2.5781-0.22015-7.8302-0.0251-11.671 0.43337-4.0677 0.48555-7.3312 0.48608-7.8161 9.3e-4 -1.2066-1.2066 0.01425-1.719 8.0509-3.379 5.7772-1.1933 8.8281-1.2989 15.857-0.5489 5.2251 0.55751 30.062 0.7552 62.141 0.49461 74.733-0.6071 153.9-0.57994 158.4 0.0544 2.0838 0.29355 20.453 1.2968 40.82 2.2295 28.884 1.3227 42.91 1.5308 63.75 0.946 32.014-0.89837 64.652-3.0558 76.875-5.0815 4.8984-0.81181 13.336-1.8409 18.75-2.2869 8.8283-0.72722 12.209-1.2203 16.916-2.4673 0.79589-0.21085 2.2355-2.7029 3.1991-5.5379 0.96364-2.835 2.2647-5.1545 2.8913-5.1545 2.7508 0 3.5672-2.7005 2.3971-7.9289-0.62172-2.7781-1.7338-5.5519-2.4712-6.1639-0.73745-0.61203-2.2658-2.9649-3.3964-5.2287-1.1306-2.2635-2.329-4.1156-2.6633-4.1156s-3.7399-2.6823-7.5682-5.9607-9.0699-7.0981-11.648-8.4881c-2.5781-1.3901-7.266-3.932-10.418-5.6487-5.4178-2.9512-5.9926-3.0694-10.547-2.1689-2.6492 0.52382-4.8098 1.4238-4.8013 2 8e-3 0.57621 1.4827 5.6883 3.2759 11.36 2.0029 6.3351 3.2624 12.225 3.2658 15.272 7e-3 5.7383-2.7086 11.929-5.639 12.859-1.0592 0.33617-9.1874 0.9412-18.063 1.3445-14.988 0.6811-16.638 0.93875-23.186 3.6204-7.4894 3.0673-16.239 4.854-23.827 4.8656-2.5443 4e-3 -6.974 0.59819-9.8438 1.3207-17.946 4.5179-17.948 4.5181-29.679 3.4188-15.685-1.4697-19.132-2.0091-19.132-2.9933 0-0.47326 0.73828-1.1103 1.6406-1.4157 0.90235-0.30535 7.3359-3.3231 14.297-6.7061 6.9609-3.383 15.374-7.2643 18.695-8.6251 5.9742-2.4478 7.8691-4.1451 5.4976-4.9245-0.67307-0.2212-0.14996-0.24208 1.1625-0.0464 3.9869 0.59447 9.0036-2.2272 15.488-8.7111 3.3943-3.3943 5.9757-6.3671 5.7366-6.6062-0.37642-0.37641-29.429 0.94647-48.795 2.2219-3.7606 0.24765-6.8362 0.022-7.4012-0.54297-0.66393-0.66393-0.26358-1.111 1.2783-1.4275 2.8156-0.57798 27.056-1.6891 44.591-2.0439 14.024-0.28378 16.914-1.0882 19.19-5.3409 0.96801-1.8087 0.73523-1.8384-10.116-1.2911-6.1088 0.30812-17.857 0.78421-26.107 1.058-8.25 0.27374-19.641 0.74385-25.312 1.0447-9.309 0.49374-10.176 0.4053-8.9062-0.90893 1.1817-1.2234 7.0197-1.6342 36.562-2.5728 28.048-0.89113 35.374-1.3834 36.235-2.435 1.1441-1.3983 0.6617-12.154-0.62211-13.872-0.3854-0.51562-1.3982-4.9453-2.2506-9.8438-4.0836-23.466-15.309-54.823-22.36-62.461l-2.7047-2.9297-6.2578 2.67c-8.5357 3.6419-13.269 3.5616-19.742-0.33496-9.7748-5.8847-9.2481-5.727-13.589-4.0692-4.5796 1.749-12.936 1.9711-15.879 0.42198-2.6079-1.3727-3.4217-2.6148-3.4396-5.2503-0.0171-2.5064-3.1662-2.8567-6.0529-0.67332-2.1541 1.6293-10.951 1.8504-13.945 0.35063-1.1262-0.5642-2.9768-2.1278-4.1123-3.4748-1.9486-2.3114-2.0986-2.3459-2.6717-0.6148-3.3813 10.214-5.6746 13.835-14.663 23.149-5.1069 5.2922-10.406 11.099-11.776 12.903-1.37 1.8047-4.2328 5.3906-6.3616 7.9688-4.8718 5.9-8.479 12.237-9.1979 16.158-0.30586 1.6682-2.2419 6.9939-4.3023 11.835s-3.9737 10.648-4.2517 12.904-0.25052 3.5577 0.0611 2.8916c0.42062-0.89879 0.88943-0.94317 1.8185-0.17214 0.68846 0.57138 2.6513 1.0443 4.362 1.0509 54.64 0.21089 55.41 0.20445 64.985-0.54363 3.6094-0.28199 7.1953-0.51102 7.9688-0.50895 26.895 0.0716 76.522 0.93323 79.509 1.3804 2.4849 0.37202 3.8989 1.0298 3.6727 1.7086-0.27513 0.8254-12.758 1.1396-49.509 1.2463-27.028 0.0785-49.774 0.24445-50.548 0.36895-0.77343 0.1245-13.008-0.017-27.188-0.31433-32.171-0.67473-23.538 0.66038 13.994 2.1641 17.45 0.69913 42.065 0.83832 70.616 0.39932 38.454-0.59125 43.828-0.50305 43.828 0.71938 0 1.1964-5.3305 1.5055-37.734 2.1878-40.825 0.85963-56.201 0.79615-97.236-0.40146-27.414-0.80009-31.825-0.46153-33.987 2.6086-0.65973 0.937-2.9947 2.6178-5.1888 3.7351-3.4875 1.776-4.9127 1.9544-11.331 1.4192-8.3762-0.69854-10.864 0.30982-14.24 5.7721-2.4746 4.0041-9.0161 6.5321-19.19 7.4161-5.6069 0.48722-8.5648 0.29626-11.719-0.75654-2.3203-0.77454-6.75-1.6994-9.8438-2.0552s-7.9453-1.4919-10.781-2.5246c-5.093-1.8547-14.181-3.3913-32.226-5.4491-6.7054-0.76467-13.166-0.78307-23.438-0.0668-14.737 1.0276-20.548 0.52827-20.994-1.804-0.22171-1.1592 2.7941-1.4083 19.682-1.6254 10.969-0.14103 24.497 0.21161 30.063 0.78363 7.6707 0.78838 10.44 0.77418 11.443-0.0587 0.72812-0.60429 1.8697-0.77048 2.5368-0.3693 0.98093 0.58991 0.98743 0.45084 0.0339-0.72705-0.64844-0.80105-3.1797-1.7115-5.625-2.0232-5.9814-0.76245-11.477-2.405-11.477-3.4302 0-0.46026 1.582-0.9803 3.5156-1.1556 1.9336-0.17534-6.5615-0.40528-18.878-0.51098-14.766-0.1267-23.468-0.58051-25.547-1.3324-4.028-1.4565-4.1002-3.022-0.10629-2.3024 7.0916 1.2778 15.608 1.5929 20.859 0.77184 5.4686-0.85493 5.3423-0.88256-4.5458-0.9937-10.928-0.12282-15.993-1.5767-17.045-4.8923-0.31151-0.98149-1.1708-1.7845-1.9095-1.7845-1.5655 0-1.8162-1.561-0.33031-2.0563 1.4776-0.49253-0.9638-5.4437-2.6843-5.4437-1.1216 0-1.1552 0.25952-0.18466 1.4289 0.65223 0.7859 0.93722 1.6776 0.63331 1.9815-0.3039 0.30391-6.3757 0.16378-13.493-0.31139-7.1172-0.47517-19.058-0.62855-26.534-0.34085-7.4766 0.28771-15.41 0.37329-17.63 0.19018-3.5187-0.29022-3.997-0.59096-3.7277-2.3438 0.18574-1.209 0.86076-1.8808 1.6929-1.6848 0.7612 0.17934 9.6106 0.47847 19.665 0.66474 10.055 0.18627 20.812 0.56903 23.906 0.85057l5.625 0.51191-4.4531-1.4394-4.4531-1.4394v-6.2598c0-3.4429 0.67266-11.476 1.4948-17.852 0.82214-6.3756 1.3489-11.738 1.1706-11.916-0.1783-0.1783-2.4586 0.22949-5.0674 0.9062-12.387 3.2132-41.718 0.28141-52.195-5.2172-2.3847-1.2516-2.5929-1.1119-2.57 1.7238 0.01147 1.418 0.74975 3.466 1.6406 4.5512 3.4728 4.2302 16.199 11.259 24.313 13.429 5.1371 1.3736 17.917 1.6941 25.447 0.6381 5.5638-0.78022 5.9313-0.71885 5.615 0.9375-0.59302 3.105-10.409 4.469-23.182 3.2214-8.7939-0.85898-11.884-1.6011-17.53-4.2096-10.346-4.7803-16.768-10.249-19.094-16.259-1.0551-2.7264-1.9184-5.9115-1.9184-7.0781s-0.37743-2.5219-0.83873-3.0117c-0.4613-0.48984-1.1276-2.2617-1.4807-3.9375-0.99722-4.7327 1.6412-3.8782 4.3424 1.4062 1.9774 3.8686 2.903 4.6629 7.0513 6.0513 11.339 3.7949 33.877 5.5628 49.758 3.9029l5.67-0.59263 0.62672-5.016c0.66707-5.3391-0.22184-8.6731-1.4368-5.3889-1.4788 3.9975-27.393 6.2514-42.13 3.6641-8.6476-1.5182-20.625-6.142-20.625-7.962 0-0.4897-1.0488-2.0221-2.3308-3.4053-1.6282-1.7568-2.1685-3.1615-1.7925-4.6597 0.29607-1.1796-0.30629-4.8157-1.3386-8.0802-2.6183-8.2799-5.6807-23.525-6.1828-30.779-0.23198-3.3516-0.71806-8.5105-1.0802-11.464-0.56042-4.5713-0.42103-5.4616 0.93665-5.9826 0.98635-0.3785 6.4426 1.6054 14.298 5.1986 8.8409 4.0442 15.022 6.226 20.331 7.1766 9.0967 1.6289 32.231 2.0009 37.916 0.60981 3.8519-0.94245 4.0248-0.89477 3.75 1.0338-0.23194 1.6277-1.2931 2.2326-5.4444 3.1033-2.8359 0.59482-5.3672 1.1595-5.625 1.2548-0.25781 0.0953-4.8984 0.1011-10.312 0.0128-19.034-0.31032-36.22-5.0216-44.347-12.157-1.7843-1.5666-3.8424-2.8484-4.5735-2.8484s-1.8286-0.49922-2.4387-1.1094c-2.1572-2.1572-2.3709 0.2695-0.77865 8.8431 0.88584 4.7699 2.2065 12.68 2.9347 17.579 1.4369 9.6654 2.8255 15.402 6.3468 26.223l2.2793 7.0042 5.8561 2.9912c5.5738 2.847 7.3894 3.2427 24.958 5.4397 4.6415 0.58043 5.465-0.4745 3.6881-4.7249-4.5586-10.905-10.994-43.676-8.9741-45.696 1.4462-1.4462 1.6836-0.79208 2.8406 7.8273 0.58823 4.382 1.4535 9.4438 1.9229 11.248 0.46935 1.8047 1.9792 7.9219 3.3551 13.594 1.376 5.6719 3.1397 11.938 3.9193 13.925l1.4175 3.6126 7.125-0.60638c13.884-1.1816 13.69-0.98408 9.8664-10.069-3.8286-9.0965-8.5035-37.331-6.1809-37.331 1.2775 0 1.4961 0.87412 4.3365 17.344 3.0926 17.932 3.6917 20.435 5.5125 23.035 1.1277 1.61 1.6068 1.8059 1.9546 0.79908 2.0834-6.0326 4.373-107.11 3.1518-139.15-0.73963-19.401-1.4557-27.82-4.4548-52.375-2.0503-16.787-10.404-44.818-17.639-59.187-1.8172-3.6094-4.013-7.9723-4.8794-9.6955-0.86648-1.7231-5.8651-7.4358-11.108-12.695-8.7947-8.8219-10.421-10.005-21.015-15.285-10.71-5.3384-12.239-5.8264-22.733-7.2561-19.423-2.6463-18.304-2.3526-19.349-5.0823-0.52323-1.3672-1.193-7.021-1.4884-12.564l-0.5371-10.078h7.6404c4.2022 0 7.6404-0.36397 7.6404-0.80884 0-0.44486-2.0764-4.5581-4.6142-9.1406-2.842-5.1318-4.994-10.423-5.6032-13.777-0.54394-2.9947-1.2033-5.7916-1.4653-6.2155-0.82041-1.3274-3.3178-20.778-3.3085-25.768 0.010547-5.6876 2.9324-20.54 5.4549-27.727 4.4202-12.595 5.0955-14.009 7.4237-15.534 1.3434-0.88024 3.3188-2.5459 4.3898-3.7015 3.8144-4.1158 32.856-12.621 43.191-12.65 2.0627-0.0057 5.2946-0.26569 7.1821-0.5778 2.9509-0.48798 3.5107-0.98836 3.9953-3.5715 0.35222-1.8775 1.702-3.858 3.5995-5.2816 4.1548-3.1169 6.2797-3.6026 9.7349-2.2248 2.7939 1.1141 3.1117 1.0081 6.0433-2.0166 3.6921-3.8093 6.7378-4.0925 11.26-1.0472 2.4801 1.6703 3.2966 2.9678 3.6871 5.8594 0.27589 2.0427 0.7944 4.1868 1.1522 4.7646 0.35786 0.57783 3.3854 1.1099 6.7278 1.1824 6.9267 0.1502 24.816 5.5615 34.51 10.439 6.1558 3.0972 15.308 11.245 16.272 14.485 0.31156 1.048 2.1669 5.0852 4.1229 8.9714 4.1312 8.2079 7.4951 22.304 7.4951 31.407 0 4.0585 0.6097 7.5039 1.7863 10.094 0.98247 2.1631 2.3085 6.6751 2.9468 10.027s1.5368 6.832 1.9967 7.7344c0.88372 1.7339 4.5202 2.2996 4.5202 0.70313 0-2.4471 12.731 0.83635 14.53 3.7475 0.85982 1.3912-1.4944 1.1404-3.2059-0.34161-1.7261-1.4946-9.4488-2.8713-9.4488-1.6844 0 0.44341 1.675 1.5615 3.7222 2.4847s4.4464 2.4787 5.3315 3.4567c1.5243 1.6843 1.5134 1.8731-0.20659 3.5741-2.9493 2.9168-15.483 9.048-20.846 10.198-6.0416 1.2952-13.027 1.3716-16.689 0.1824-1.4949-0.48547-5.1606-1.3626-8.1459-1.9492-3.5852-0.70444-7.433-2.4111-11.334-5.0269-3.2482-2.1782-6.3504-3.8122-6.8936-3.6311-0.59565 0.19855 0.34104 3.9397 2.3598 9.4252 3.3347 9.0611 3.3478 9.1571 3.4153 25.033 0.0415 9.7713-0.34356 17.026-0.99537 18.75-0.58474 1.5469-1.5751 4.7109-2.2008 7.0312s-1.5401 4.9862-2.0321 5.9241c-0.49199 0.93795-2.8157 6.8411-5.1637 13.118-3.8555 10.307-4.3278 12.464-4.8735 22.261-0.33235 5.9666-0.3111 13.182 0.0473 16.035 0.78203 6.2261 4.2501 14.389 8.6404 20.336 3.5216 4.7708 16.81 17.065 15.91 14.719-0.30748-0.80119-0.8797-1.4567-1.2716-1.4567-1.4089 0-5.6456-7.3916-4.6053-8.0345 0.6127-0.37867-0.6497-2.3351-3.2049-4.967-5.8673-6.0432-12.631-20.126-11.651-24.257 0.3055-1.2865 0.63437-1.0562 1.4986 1.0493 6.5535 15.966 13.685 24.975 23.273 29.4 4.647 2.1448 6.6838 2.5104 13.883 2.4926 8.9415-0.0221 15.39-1.4966 24.009-5.49 3.6682-1.6995 5.1697-2.0143 5.6788-1.1907 1.1152 1.8044 6.3486-3.8052 8.9441-9.587 1.2628-2.8131 3.0188-6.1881 3.9022-7.5 0.88341-1.3119 2.6227-4.7056 3.865-7.5416s2.7277-5.7891 3.3007-6.5625c1.7487-2.3602 4.5339-9.3598 3.9548-9.9389-1.4171-1.4171-4.7748 1.0912-6.4104 4.7888-0.98265 2.2214-3.5321 6.9257-5.6655 10.454-6.205 10.262-6.8711 9.8222-6.9712-4.6026-0.0628-9.0469-0.48123-12.576-1.9728-16.639-1.0412-2.8359-2.2071-7.2656-2.591-9.8438-0.38383-2.5781-1.143-5.5192-1.6869-6.5357-0.544-1.0165-0.93585-3.264-0.8708-4.9943 0.0651-1.7303-0.54128-4.1526-1.3474-5.3829-1.9531-2.9809-5.0535-17.426-5.012-23.352 0.0183-2.6042 0.63613-5.7897 1.373-7.0787s1.364-3.6094 1.3936-5.1562c0.10976-5.7371 7.0903-17.344 10.431-17.344 3.8171 0 14.266 13.162 12.595 15.866-0.26619 0.43069-1.3196 1.0016-2.3409 1.2687-1.4386 0.37622-2.4089-0.45626-4.3073-3.6956-2.586-4.4127-7.3046-7.9939-9.4487-7.1711-0.70207 0.2694-1.8716 2.4499-2.599 4.8455-0.72737 2.3956-1.5998 5.0423-1.9387 5.8816-1.2595 3.1191 11.133 3.8822 29.68 1.8276 0.87316-0.0967-1.8335-9.0858-3.9738-13.197-2.1726-4.1736-5.4171-7.5868-10.604-11.156-3.6708-2.5256-4.1563-3.2958-4.6129-7.3179-0.28064-2.4724-0.30132-4.7062-0.0459-4.964 0.75711-0.7644 4.0529 3.8148 4.0529 5.6311 0 0.97809 1.9139 2.9016 4.6063 4.6292l4.6063 2.9558 4.8053-1.5717c4.6297-1.5143 5.026-1.4993 10.844 0.41067 7.1171 2.3364 16.504 1.9495 19.669-0.81066 1.0312-0.89936 2.8242-2.1246 3.9844-2.7228 2.9325-1.5121 2.6338-2.8967-0.62504-2.8967-1.5039 0-2.9003-0.49767-3.103-1.1059s-2.185-1.5575-4.4049-2.1094c-3.1722-0.78864-4.4647-1.7465-6.0376-4.4747-1.4752-2.5586-3.8352-4.4338-8.976-7.1321-6.5072-3.4154-10.763-6.5743-22.881-16.985-6.7212-5.774-16-18.319-19.967-26.995-4.1947-9.1741-9.7082-25.495-9.7082-28.739 0-4.4463 1.6016-2.5665 2.1238 2.4928 0.28111 2.7237 1.3515 6.4151 2.3786 8.2031s2.1642 4.3057 2.5269 5.5947c1.6326 5.803 8.5981 18.212 12.893 22.969 1.4568 1.6135-1.4474-4.5875-3.0736-6.5625-3.4562-4.1977-9.8142-19.327-13.091-31.151-5.0768-18.32-3.6458-37.932 4.0544-55.568 2.302-5.272 5.5861-9.0837 12.028-13.96 10.562-7.9954 17.54-10.815 34.066-13.762 21.919-3.9091 50.658 0.99335 68.85 11.745 5.8769 3.4732 20.727 15.41 22.029 17.707 0.4838 0.85352 3.1566 4.2368 5.9396 7.5184s6.5097 8.2329 8.2817 11.003c3.5155 5.4956 3.7622 5.6053 14.47 6.433 6.3893 0.49393 8.0313 0.22844 17.045-2.7561 17.673-5.8515 27.852-3.6375 29.483 6.4125 0.44516 2.7431 0.071 4.0124-1.9728 6.6919l-2.5221 3.3067 1.9327 2.4571c1.0731 1.3642 1.9327 3.8455 1.9327 5.5789 0 3.5765 1.4552 4.6737 7.4757 5.6364 2.214 0.35403 5.8832 2.0302 8.3206 3.8009 2.398 1.7421 5.6777 4.012 7.2881 5.0441 1.813 1.1619 3.5384 3.4745 4.5307 6.0727 0.8814 2.3079 1.9151 4.1962 2.297 4.1962 0.83358 0 9.0438 11.869 10.052 14.531 0.39051 1.0312 1.8957 3.7528 3.3449 6.048 1.4492 2.2951 3.4406 6.303 4.4253 8.9062 0.98471 2.6033 3.8696 9.163 6.4109 14.577 5.6271 11.988 9.6048 27.723 9.6048 37.995 0 6.4142 2.2723 15.203 4.5809 17.717 1.8072 1.9685 8.5441 21.508 8.5441 24.781 0 0.97781 0.59764 3.2082 1.3281 4.9564 0.73045 1.7482 1.6258 6.2004 1.9898 9.8939 0.57766 5.8622 0.39539 7.2655-1.4347 11.046l-2.0964 4.3307 3.7082 4.4056c6.3856 7.5866 11.936 16.343 14.676 23.156 1.452 3.6094 4.0386 9.9375 5.748 14.062 1.7094 4.125 3.543 10.453 4.0748 14.062 0.53171 3.6094 1.6631 10.57 2.5142 15.469 2.7612 15.891 0.48037 75.337-3.1514 82.137-0.51968 0.97299-1.8733 5.566-3.008 10.207-1.1844 4.8437-3.5305 11.033-5.5082 14.531-6.0261 10.659-6.0926 10.971-4.8098 22.587 1.2965 11.74 0.66538 21.178-1.9357 28.946-2.1991 6.5677-2.1972 8.0388 0.0144 11.637 4.2512 6.9164 4.7209 25.801 1.0286 41.361-4.2458 17.892-4.2016 17.248-1.8833 27.474 1.1723 5.1703 2.447 9.9112 2.8328 10.535 0.54004 0.8738 2.0621 0.89514 6.617 0.0928l5.9156-1.042 9.6288 4.6909c7.0452 3.4322 10.434 5.6923 12.628 8.4232 1.6497 2.0528 3.5568 3.7324 4.2381 3.7324s4.5729 3.2695 8.648 7.2656c7.7515 7.6012 7.5157 7.1852 14.608 25.78 3.4743 9.1084 3.4822 9.1621 2.3623 15.938-1.432 8.6638-4.2333 15.265-7.4496 17.555-3.0775 2.1914-19.856 3.5076-47.811 3.7507-10.035 0.0873-18.503 0.31768-18.817 0.512-2.3128 1.4294-143.29 4.8455-148.8 3.6057zm74.118-34.549c1.8324-0.76562 3.568-1.7746 3.857-2.2421 0.28895-0.46753 4.853-1.1298 10.142-1.4718 14.363-0.92852 19.138-2.1063 26.961-6.6495 11.421-6.6332 13.567-7.2981 21.296-6.5977 3.7259 0.33763 8.7905 1.2256 11.255 1.9734 2.4642 0.74772 6.2435 1.364 8.3983 1.3696l3.9178 0.0101 1.5032-5.1707c2.3814-8.1917 1.3971-12.898-7.7417-37.017-6.0557-15.982-6.436-20.065-3.6245-38.906 2.7612-18.504 2.5842-28.625-0.65047-37.207-1.7352-4.6034-2.5219-5.546-5.7597-6.9011-5.7928-2.4246-17.322-2.7141-27.154-0.68185-7.4934 1.5489-8.4626 1.986-8.9463 4.0351-0.36718 1.5554-0.77465 1.9224-1.2609 1.1356-0.39513-0.63932-2.1701-1.1624-3.9443-1.1624-3.7542 0-4.2236 1.6212-1.2475 4.3078 2.6118 2.3577 7.5863 12.352 10.222 20.536 1.1622 3.6094 3.1011 9.5156 4.3086 13.125s2.8598 10.148 3.6717 14.531c1.7041 9.1986 2.8576 32.48 1.4632 29.531-0.48774-1.0312-0.91644-3.4321-0.95267-5.3353-0.0363-1.9032-0.49237-3.7239-1.0136-4.046-0.62615-0.38698-0.76673 2.2186-0.41436 7.679 0.49575 7.682 0.43272 8.0995-0.89406 5.921-0.78509-1.2891-1.5022-3.8203-1.5937-5.625l-0.16625-3.2812-0.63378 3.75c-0.34858 2.0625-0.44188 6.557-0.20733 9.9877 0.42313 6.189 0.4039 6.2493-2.4679 7.7344-3.6289 1.8766-4.486 1.8962-2.9686 0.0678 1.3076-1.5755 0.68933-2.8694-0.90134-1.8863-0.55399 0.34238-3.2789 3.6942-6.0553 7.4485-6.221 8.412-11.776 13.032-17.906 14.892-15.244 4.6253-18.665 5.8722-26.953 9.8222-5.0273 2.396-9.1406 4.8768-9.1406 5.5129 0 2.2349 20.63 2.8874 25.603 0.8098zm52.391-56.733c-0.1714-4.0193-1.0668-9.1547-6.4564-37.031-2.5587-13.235-5.7781-24.32-9.2972-32.013-2.6692-5.8355-2.9082-7.6768-0.76551-5.8985 7.1163 5.906 18.18 53.325 17.048 73.068-0.2615 4.562-0.39453 5.0333-0.52921 1.875zm-226.29 21.545c4.8831-2.1043 8.6113-6.6687 8.6113-10.543 0-1.3618 0.50253-3.5789 1.1167-4.9269 0.92713-2.0348 0.82826-2.9866-0.58239-5.606-2.888-5.3627-23.117-16.406-30.053-16.406-1.2611 0-3.7536-0.69653-5.5388-1.5478-3.146-1.5002-3.4073-1.4714-8.4949 0.9375-2.887 1.3669-5.6307 2.4853-6.0971 2.4853-0.46641 0-1.7205 1.2253-2.7869 2.7228-2.7055 3.7995-2.5559 10.444 0.37701 16.743 2.935 6.3042 5.5825 8.5887 15.965 13.776 7.8154 3.9048 8.9776 4.2172 15.764 4.2365 5.3103 0.0152 8.5349-0.49996 11.719-1.872zm-17.639-2.33c-6.6406-1.8538-14.35-5.6289-16.485-8.0724-4.5727-5.2337-7.146-11.188-7.0839-16.39 0.0587-4.9126 1.571-9.5626 2.7323-8.4012 0.31575 0.31576 0.61625 3.4105 0.66777 6.8772 0.11017 7.4122 1.3993 10.209 7.5075 16.287 3.5602 3.5426 5.4992 4.6398 10.354 5.8594 3.2855 0.8253 7.2306 1.5005 8.7668 1.5005 3.7099 0 7.8614 1.6354 7.1351 2.8108-0.77532 1.2545-8.3541 0.99185-13.595-0.47114zm-21.381-3.5192c-2.2206-2.1872-4.8511-5.3478-5.8456-7.0236-0.99448-1.6758-2.4472-3.0469-3.2282-3.0469-2.3979 0-1.5764 3.4155 1.384 5.7538 1.5422 1.2182 2.8078 2.6591 2.8125 3.2021 7e-3 0.80969 6.7991 4.8634 8.446 5.0408 0.25781 0.0278-1.3481-1.739-3.5687-3.9262zm74.074-11.242c-0.15151-0.90234 0.18979-1.6406 0.75845-1.6406s0.77319 0.42187 0.45452 0.9375c-0.9301 1.5049 1.0597 1.0784 2.3777-0.50966 1.5589-1.8784 6.0729-14.562 8.9938-25.272 2.6257-9.627 6.3504-18.107 10.801-24.59 1.6885-2.4598 9.3626-11.319 17.053-19.688 8.6197-9.3792 14.783-16.941 16.068-19.715 2.4936-5.3822 3.5844-13.979 1.8578-14.642-0.63717-0.2445-4.6866 1.3618-8.9986 3.5696-9.226 4.7237-17.412 6.0222-23.068 3.659-4.0188-1.6792-10.553-6.7754-10.553-8.2304 0-1.2047-3.3468-4.2702-4.6621-4.2702-0.83971 0-1.9623 3.4623-3.1917 9.8438l-0.54183 2.8125 1.3269-2.8125c0.72979-1.5469 1.5722-3.9727 1.8719-5.3906 0.29978-1.418 1.0081-2.5781 1.574-2.5781 1.1751 0 0.86462 1.5324-2.1371 10.547-1.159 3.4805-2.629 6.3281-3.2667 6.3281-1.2955 0-1.5359 0.70469-3.1985 9.375-2.4857 12.963-10.526 33.847-16.301 42.339-2.0129 2.9603-2.146 3.5892-0.96674 4.5679 1.4432 1.1977 1.8761 3.7179 0.63867 3.7179-1.0456 0-5.1628-2.9388-6.5069-4.6445-0.62813-0.7971-1.1555-2.1876-1.1719-3.0899-0.01837-1.0136-0.75675-1.6406-1.932-1.6406-1.0462 0-5.7923-1.3376-10.547-2.9724-7.8508-2.6994-9.764-2.9836-20.832-3.0943-10.324-0.10325-12.172-0.34173-12.083-1.5598 0.10505-1.448-1.1134-1.8056-20.187-5.9237-4.7484-1.0252-7.2631-1.1973-7.9184-0.54208-1.1762 1.1762 0.45027 2.4862 8.7828 7.0737 3.3516 1.8452 7.9127 4.3688 10.136 5.608 2.2231 1.2392 7.5751 5.5974 11.893 9.685 5.9846 5.665 8.7014 7.5896 11.427 8.0952 10.687 1.9825 25.475 11.171 34.696 21.558 3.5088 3.9527 4.2387 4.364 6.7611 3.81 1.5552-0.34157 3.582-0.17199 4.504 0.37685 2.6025 1.5491 6.4175 0.8605 6.0885-1.099zm-8.9551-41.586c0.36085-0.97528 1.5668-3.2498 2.6799-5.0545 3.5234-5.7126 10.861-22.529 15.131-34.679 5.355-15.235 6.0312-16.884 6.9264-16.884 0.85865 0-0.0743 3.8779-3.4962 14.531-2.868 8.9292-18.021 40.693-20.3 42.554-1.4177 1.1577-1.5236 1.105-0.94132-0.46875zm21.99-20.523c0.20719-0.51563 1.4783-3.0469 2.8247-5.625s4.0295-9.017 5.9624-14.309c1.9329-5.2916 3.8604-9.8349 4.2833-10.096 0.9422-0.58231-0.0988 3.1614-2.6151 9.4048-1.0391 2.5781-3.0601 7.7387-4.4911 11.468s-3.4432 7.5261-4.4714 8.4375c-1.0282 0.91135-1.7 1.2351-1.4928 0.7195zm11.147-7.6659c0-1.0939 5.6621-13.831 8.6783-19.522 1.3664-2.5781 2.4725-4.0547 2.4579-3.2812-0.0474 2.523-8.7605 22.82-9.9644 23.212-0.64453 0.2098-1.1719 0.0255-1.1719-0.40943zm12.188-8.4365c0-0.34849 1.5635-3.9344 3.4745-7.9688 3.5296-7.4514 5.4968-9.6529 4.0179-4.4962-1.7737 6.1845-7.4924 15.699-7.4924 12.465zm-119.56 68.134 0.67318-6.0938-2.6644 2.6862c-1.7714 1.7858-2.2717 2.8333-1.4926 3.125 1.3865 0.51918 1.5964 4.9701 0.23438 4.9701-0.51563 0-0.97081-0.94922-1.0115-2.1094-0.0656-1.8704-0.18415-1.8069-1.0462 0.56046-0.69142 1.8988-0.6632 3.348 0.0978 5.0181l1.07 2.3483 1.7331-2.2056c1.0332-1.3149 2.005-4.6666 2.4063-8.2994zm-8.8744 4.3379c0-2.8986 3.219-10.135 5.3566-12.042 0.92106-0.82167 5.1473-2.827 9.3917-4.4563s7.9458-3.3325 8.2254-3.7849c1.1663-1.8871-10.398-11.341-22.724-18.576-7.1204-4.1799-8.6874-5.9778-8.6874-9.9678 0-4.1474 3.0308-4.7111 13.686-2.5455 5.1053 1.0376 13.29 2.3803 18.189 2.9837 12.391 1.5265 31.785 4.6085 35.156 5.5868 1.5469 0.44888 7.1475 1.0951 12.446 1.436l9.6333 0.61986 2.8726-6.3354c1.5799-3.4845 3.32-8.687 3.8667-11.561 0.54677-2.8742 1.9445-8.3898 3.1062-12.257s2.4059-9.1406 2.765-11.719c0.35915-2.5781 1.2891-6.955 2.0665-9.7263 1.4633-5.2161 0.96944-6.6262-2.3343-6.6656-2.4947-0.0297-10.125-4.6174-12.06-7.2509-2.5002-3.4027-5.6622-14.462-6.879-24.06-0.8085-6.3768-0.63783-8.5903 1.4045-18.216 2.3779-11.207 5.6131-20.466 8.1703-23.382 0.78932-0.90028 2.1436-3.035 3.0095-4.7437 2.0727-4.0901 9.008-14.677 12.704-19.393 1.6164-2.0625 4.7058-6.479 6.8652-9.8146 2.1594-3.3355 7.9697-10.334 12.912-15.553 17.956-18.961 34.25-47.149 37.902-65.57 1.2756-6.4336 1.2541-6.6534-1.0963-11.19-2.4385-4.7065-2.4474-4.8985-0.666-14.461 0.40609-2.1798 0.18836-3.4032-0.70657-3.97-2.0498-1.2983-2.3378-1.0657-3.5058 2.8329-0.60657 2.0245-2.3781 4.754-3.9367 6.0655-7.9169 6.6616-37.998 9.7303-60.414 6.163-8.6875-1.3825-13.352-1.0827-22.493 1.446-4.637 1.2827-10.121 2.3386-12.188 2.3465-2.0661 7e-3 -4.2367 0.3243-4.8234 0.70313-2.4369 1.5734-3.8873 15.538-4.0151 38.658-0.0697 12.633-0.51935 32.883-0.99903 45-1.2446 31.441-1.5397 57.326-0.68032 59.679 0.55233 1.5122 0.16368 2.6431-1.5401 4.4816-2.1834 2.3559-2.3081 3.1945-2.9753 20.009-0.38301 9.6523-0.41754 23.14-0.0767 29.972 0.34588 6.9336 0.2577 12.422-0.19959 12.422-2.8347 0-3.7972-52.944-1.0823-59.531 0.63752-1.5469 1.2724-7.4531 1.4109-13.125s0.50084-12.844 0.80521-15.938c2.1937-22.298 3.9244-100.78 2.2225-100.78-0.43828 0-1.5155 1.3711-2.3939 3.0469-0.87836 1.6758-3.5359 4.9453-5.9057 7.2656s-4.9651 5.4889-5.7675 7.0414-3.6096 4.6362-6.2382 6.8527c-4.5084 3.8016-4.7779 4.2793-4.7533 8.4274 0.0321 5.4101 3.3339 10.202 10.229 14.846 6.0508 4.0748 7.1535 6.104 5.79 10.655-1.7088 5.7035-7.8782 10.856-17.452 14.576-3.9736 1.5438-7.0722 1.8208-20.346 1.8191-11.259-2e-3 -15.987-0.33071-16.828-1.1719-0.6434-0.64339-2.4565-1.1722-4.0292-1.175-9.2333-0.0169-15.516-5.6374-15.516-13.881 0-6.7064 0.54163-7.5087 6.1746-9.1462 3.347-0.97299 5.627-2.3071 6.8036-3.981 1.9272-2.7415 3.3729-10.193 2.4462-12.608-0.31853-0.8301-3.46-3.4597-6.9811-5.8436-5.3805-3.6428-12.355-10.263-16.445-15.61-3.1996-4.1825-7.1712-15.863-8.7444-25.717-0.77578-4.8591-0.59786-6.8598 1.2089-13.594 1.1652-4.3428 3.2875-10.427 4.7163-13.521 3.2701-7.081 3.2604-8.7813-0.0771-13.449-9.9609-13.931-14.485-18.102-25.195-23.232-5.1139-2.4493-6.6046-2.7057-16.406-2.8215-5.9297-0.07-12.255-0.59739-14.056-1.1719-3.3851-1.0796-13.131-1.4565-13.131-0.50786 0 0.29516 4.5352 5.0721 10.078 10.615 24.601 24.602 31.894 43.629 41.003 106.97 1.2386 8.613 2.8251 45.467 2.8251 65.625 0 16.648-1.3894 61.769-2.2373 72.656-0.44173 5.6719-0.86618 17.273-0.94322 25.781-0.0771 8.5078-0.78621 22.43-1.5759 30.938s-1.3082 18.599-1.1522 22.425c0.27286 6.6913 0.38409 6.9896 2.9204 7.832 1.4502 0.48167 2.882 0.63044 3.1819 0.3306 0.29985-0.29984-0.17028-2.8198-1.0448-5.6-1.7042-5.4181-1.269-9.7726 1.0664-10.669 0.75913-0.2913 1.7423 0.0562 2.1849 0.7723 0.55705 0.90131 0.23945 1.511-1.0321 1.9814-1.0102 0.3737-1.8368 1.1317-1.8368 1.6845 0 1.3828 3.6519 8.4304 4.3684 8.4304 0.31917 0 0.34921-2.2148 0.0667-4.9219-0.49419-4.7368-0.46636-4.8137 0.74016-2.0452 0.68951 1.5822 1.9165 3.4268 2.7267 4.0992 0.81016 0.67237 1.473 1.9492 1.473 2.8374s0.82632 2.3627 1.8363 3.2767c1.01 0.91399 2.4936 3.6161 3.297 6.0047 2.5913 7.7044 3.901 8.3388 18.357 8.8914 6.9317 0.26501 16.4 1.0954 21.041 1.8453 4.6406 0.74991 10.02 1.411 11.953 1.4692 3.1045 0.0934 3.5156-0.15444 3.5156-2.1188zm-61.152-26.048c-0.32883-0.85477-0.22533-10.98 0.23-22.5s1.2599-31.915 1.788-45.321 1.2431-28.172 1.5889-32.812c1.6229-21.775 0.0332-104.29-2.3752-123.28-2.5793-20.343-3.0912-25.426-2.6089-25.908 1.5015-1.5015 2.3213 1.6507 3.3748 12.976 0.63762 6.8549 1.518 14.151 1.9564 16.213 1.7932 8.4365 2.8897 35.309 2.7543 67.5-0.0564 13.406-0.0379 29.016 0.0413 34.688 0.0791 5.6719-0.32911 19.594-0.90708 30.938-1.5412 30.249-1.7084 34.379-2.3867 58.949-0.57888 20.97-1.9658 32.432-3.4557 28.559zm115.2-41.805c-2.0087-15.725-2.5155-32.838-1.9775-66.767 1.0127-63.857 1.1097-67.293 1.9376-68.598 0.90846-1.4329 0.83374 0.36509 2.1527-51.793 0.53313-21.082 1.1932-38.554 1.4669-38.828 1.5902-1.5902 1.8859 3.9906 1.72 32.471-0.2846 48.855-0.4632 54.741-1.7595 57.988-0.65618 1.6435-0.97832 3.8093-0.71586 4.813 0.26247 1.0037-0.20582 11.014-1.0406 22.246-1.2563 16.902-1.4058 28.391-0.86777 66.671 0.35756 25.438 0.42575 46.251 0.15154 46.251s-0.75454-2.0039-1.0674-4.4531zm-73.02-39.422c-0.59301-2.2677 0.66988-29.028 2.5449-53.927 0.7835-10.404 1.4317-22.924 1.4405-27.823 0.0159-8.8993 1.0847-13.429 2.3751-10.067 0.76117 1.9836 0.0924 21.345-1.3191 38.192-0.58325 6.9609-1.4662 21.898-1.9622 33.194-0.82317 18.749-1.8088 25.288-3.0792 20.43zm-5.3364-31.828c-0.0363-2.1914 0.0959-3.9844 0.29356-3.9844 0.79583 0 1.1448 4.4643 0.48144 6.1582-0.50167 1.2809-0.72839 0.64498-0.775-2.1738zm0.89739-8.2031c-0.40506-3.9269 0.15166-50.465 0.61824-51.681 0.26947-0.70222 0.86786-1.0432 1.3297-0.75773 0.96063 0.5937 0.0961 42.406-1.0261 49.626-0.40068 2.5781-0.81553 3.8438-0.9219 2.8125zm-41.691-139.92c-0.88536-4.5117-2.6075-11.156-3.8269-14.766-1.2194-3.6094-3.2606-10.717-4.536-15.796-1.2753-5.0783-3.1373-10.141-4.1376-11.25-1.0004-1.1092-2.774-3.9745-3.9414-6.3675-1.1674-2.3929-3.908-5.8431-6.0901-7.6672-4.8792-4.0785-11.356-12.826-9.4961-12.826 2.3155 0 16.256 16.266 20.144 23.504 5.8623 10.914 9.875 23.366 12.667 39.308 0.76766 4.3828 1.6845 9.3398 2.0375 11.016 0.38226 1.8149 0.26717 3.0469-0.28464 3.0469-0.50952 0-1.6508-3.6914-2.5361-8.2031zm340.28 275.16c-0.34265-2.707-1.421-9.1406-2.3964-14.297-2.8904-15.28-12.555-41.803-15.694-43.07-0.92982-0.37521-0.96299-0.0508-0.15009 1.4681 0.57391 1.0724 0.8341 2.7504 0.57821 3.7289-0.2559 0.97854-0.10067 1.7792 0.34495 1.7792 1.2368 0 5.2684 7.4479 6.5972 12.188 0.65055 2.3203 1.475 4.6406 1.8321 5.1562 1.1491 1.6591 3.9175 10.886 3.4164 11.387-0.26646 0.26647 0.0582 1.8212 0.72153 3.4549 0.6633 1.6337 1.7072 6.5564 2.3199 10.939 1.4089 10.079 1.8438 12.188 2.5141 12.188 0.29638 0 0.25851-2.2148-0.0842-4.9219zm-199.24-25.448c0-0.84393-1.3473-1.4363-3.7987-1.67-4.7158-0.44973-5.4838 0.16745-2.0828 1.6738 3.5433 1.5694 5.8815 1.5679 5.8815-4e-3zm156.65-42.989c8.6282-2.9967 9.6697-4.0092 12.118-11.78 2.0019-6.3537 7.4256-15.173 9.3312-15.173 0.45203 0 1.3236-1.582 1.9368-3.5156 1.5773-4.9732 12.534-24.581 16.95-30.333 1.3479-1.7557 4.0317-6.3317 5.964-10.169 1.9323-3.8371 4.4649-8.484 5.628-10.326 1.1631-1.8425 3.2231-6.0837 4.5778-9.425 3.7947-9.3595 12.86-43.884 12.81-48.786-0.0135-1.3194 0.59492-3.2179 1.352-4.2188 1.3319-1.761 1.3774-1.7458 1.4062 0.4675 0.0324 2.487-0.82732 7.4884-4.3295 25.186-2.4405 12.333-7.9843 29.331-13.054 40.026-2.9423 6.2068-4.5338 8.7615-16.061 25.781-7.323 10.813-11.373 18.756-14.431 28.302-3.8418 11.994-4.4817 17.526-2.2189 19.181 2.6698 1.9522 6.1859 1.5294 13.632-1.6394 6.5712-2.7963 7.2401-2.8923 17.676-2.5381 9.1661 0.31112 11.355 0.68824 14.128 2.434 5.0365 3.1709 6.087 2.7509 8.297-3.3178 2.9178-8.012 3.3585-15.193 1.6416-26.75-0.8256-5.5573-1.5008-12.306-1.5003-14.998 7.4e-4 -4.7048 2.3101-17.855 3.4633-19.721 0.30663-0.49613 0.83109-7.7036 1.1655-16.017 0.6047-15.034 1.6268-20.384 2.9713-15.553 0.35735 1.2839 0.69178 5.5829 0.74317 9.5533 0.0762 5.8879-0.20091 7.3838-1.5029 8.1124-1.3607 0.76151-1.4091 1.119-0.32777 2.4219 1.7475 2.1056 2.0359 7.1603 0.54157 9.4894-0.68114 1.0616-1.0176 3.0857-0.74758 4.498 0.34233 1.7908-0.0133 2.9364-1.1753 3.786-1.0857 0.79387-1.3116 1.4374-0.64834 1.8473 0.57805 0.35726 0.82627 2.1406 0.57452 4.1275l-0.44327 3.4984 1.6212-3.75c0.89164-2.0625 2.1133-4.1719 2.7148-4.6875 1.6666-1.4287 7.6371-21.376 9.4004-31.406 1.8063-10.275 2.5343-53.722 1.1389-67.969-1.0134-10.347-5.4368-28.671-9.0525-37.5-4.3722-10.677-13.811-25.342-18.878-29.331l-2.7225-2.1431-1.4631 2.233c-0.80471 1.2282-2.4074 2.6632-3.5615 3.1891-1.8472 0.84163-2.0857 1.6165-1.9922 6.4726 0.11589 6.0172 1.6096 10.518 9.3135 28.062 6.5685 14.959 6.8545 16.717 3.7237 22.895-3.8634 7.6242-7.7302 12.435-12.262 15.256-2.2842 1.4217-4.5635 2.5849-5.0652 2.5849-0.50171 0-1.836 1.2496-2.9652 2.7768-2.5569 3.4584-7.0675 5.6607-11.594 5.6607-1.905 0-4.5834 0.58526-5.9521 1.3006-1.3686 0.71533-3.6194 1.7477-5.0016 2.2941-2.0903 0.8263-2.6137 1.7513-3.1103 5.4963-3.1131 23.476-9.6267 37.941-25.628 56.911-7.0497 8.3579-9.5222 10.873-10.689 10.873-1.5038 0 6.1236-10.491 13.973-19.219 4.2253-4.6983 16.171-28.068 16.224-31.739 0.0138-0.95642 0.90395-6.1595 1.9783-11.562 1.0743-5.4029 1.7224-10.054 1.4402-10.336-0.28217-0.28218-4.0088-0.60412-8.2814-0.71542-11.449-0.29827-17.231-3.1138-21.416-10.429l-3.1301-5.4708 0.17923-13.845c0.19894-15.369 0.93467-20.004 4.5561-28.703 2.314-5.5586 2.3966-6.2574 1.329-11.25-1.7717-8.2852-1.728-8.207-4.5192-8.086l-2.5795 0.11181-0.57674 36.95c-0.68 43.566-2.0658 58.026-6.956 72.579-4.3127 12.835-6.303 17.304-6.7722 15.209-0.20474-0.91444 0.50434-3.4734 1.5757-5.6866 1.0714-2.2132 1.948-4.6387 1.948-5.3901 0-0.75137 1.0296-5.4251 2.2881-10.386 3.8598-15.216 5.2933-33.39 5.4968-69.691l0.18391-32.808-2.1969-0.31104c-1.9404-0.27474-2.1046-0.0559-1.4062 1.875 1.2893 3.5649 0.5709 45.143-1.0822 62.632-1.5799 16.714-3.9759 30.065-6.4642 36.021-3.7264 8.9184-7.5156 16.375-8.1287 15.996-0.3731-0.23059 0.58358-3.4807 2.126-7.2225 4.0953-9.935 6.4631-19.041 6.8882-26.491l0.37448-6.5625-1.2188 6.5625c-2.5819 13.903-14.551 40.672-21.544 48.183-4.2016 4.5132-12.838 17.909-14.275 22.142-0.78335 2.3073-2.6667 6.2014-4.1852 8.6536-5.1156 8.261-7.4809 16.908-7.4809 27.349 0 5.1324 0.40304 10.392 0.89566 11.687 2.2619 5.9493 10.219 7.2363 17.412 2.8162 4.332-2.6622 5.0688-3.739 12.159-17.77 7.4801-14.802 15.172-27.326 20.111-32.749 1.4092-1.5469 3.5051-4.1886 4.6576-5.8704s2.5038-2.8055 3.0028-2.4971c1.0701 0.66136-2.5174 7.1225-8.0294 14.461-3.9759 5.2934-11.209 18.688-10.483 19.413 0.43514 0.43514 5.5331-6.7644 6.4444-9.1009 0.92726-2.3776 12.999-17.081 13.562-16.518 0.29105 0.29106-0.6898 2.0651-2.1797 3.9423s-3.1307 4.0886-3.6464 4.9142c-0.51562 0.8256-2.4496 3.6254-4.2976 6.2218-4.5207 6.3512-13.173 24.493-13.757 28.845-0.25853 1.9275-1.0482 3.9843-1.7547 4.5707-1.0531 0.87397-1.2847 0.35944-1.2847-2.8539 0-2.3747-0.36959-3.6917-0.9375-3.3407-0.51562 0.31867-0.9375 2.8013-0.9375 5.5169 0 4.0545 0.41914 5.3313 2.3438 7.1393 3.4107 3.2042 2.9297 4.0599-1.9716 3.5074-3.8339-0.43214-4.1586-0.32967-2.9106 0.91841 1.2481 1.2481 2.0761 1.2365 7.4222-0.10427 8.4748-2.1254 13.664-1.9465 17.513 0.6038 11.007 7.2937 11.009 7.2941 19.874 4.2152zm-10.396-1.3555c-0.77344-0.2774-3.21-2.4006-5.4147-4.7182-3.4306-3.6064-4.3766-4.1232-6.5625-3.5851-5.3782 1.3239-13.335 1.7003-13.335 0.63086 0-0.5776 0.85429-1.0502 1.8984-1.0502s4.299-0.84375 7.2331-1.875c2.9341-1.0312 5.6472-1.875 6.0292-1.875 0.38196 0 3.0226 2.3096 5.8681 5.1324s6.239 5.3998 7.5412 5.7266c1.3022 0.32683 2.3676 0.97036 2.3676 1.4301 0 0.89898-3.3275 1.0075-5.625 0.18347zm31.172 2.8632c4.0718-0.67304 4.5426-1.7497 1.1387-2.6041-3.0823-0.77362-4.419-4.384-3.6419-9.8369 0.44593-3.1291 0.32988-4.035-0.42586-3.3249-0.93405 0.87769-1.7338 3.8938-3.532 13.321-0.64559 3.3845-0.2129 3.5483 6.461 2.4452zm-114.7-20.062c3.2997-1.5435 5.8072-2.9985 5.5723-3.2334-1.1232-1.1232-17.665 4.8458-17.665 6.3743 0 1.3749 5.4841-0.0494 12.093-3.1409zm-14.497 1.1309c2.5727-2.2868 10.028-5.3004 16.794-6.7885l5.4833-1.206-0.57594-3.6017c-0.8312-5.1981 0.97373-14.953 3.915-21.16 3.1258-6.5962 2.9135-6.2729 3.6422-5.5442 0.33226 0.33225-0.18539 2.6174-1.1503 5.0781-2.073 5.2863-2.6108 23.714-0.71104 24.36 1.4215 0.48331 2.1522-3.122 2.5624-12.642 0.39615-9.1963 3.3984-16.182 10.625-24.721 2.4621-2.9095 6.0489-7.7611 7.9706-10.781 1.9218-3.0202 5.9938-8.4444 9.0491-12.054s6.7072-8.8828 8.1156-11.719 3.7358-7.0547 5.1721-9.375c3.1541-5.0952 8.0283-20.079 8.844-27.188 1.0267-8.947 3.4492-19.179 4.7953-20.254 1.7463-1.3948 3.1959-19.261 3.453-42.558l0.20178-18.281-2.3289 0.3305c-1.2809 0.18177-3.8122 0.81636-5.625 1.4102l-3.2961 1.0797-0.1823 7.9648c-0.28443 12.428-3.8041 40.572-5.9202 47.34-0.48366 1.5469-1.4837 6.1875-2.2222 10.312-2.9899 16.699-8.4344 32.588-11.901 34.73-1.2332 0.76218-1.1978 0.59747 2.1291-9.8865 2.2805-7.1863 4.386-16.945 7.7881-36.094 1.0103-5.6868 1.993-6.3365 1.4182-0.9375-0.10979 1.0312 0.0994 1.5821 0.4649 1.224 2.5054-2.4544 6.6579-53.255 4.3531-53.255-0.71655 0-1.0843 2.2068-1.0843 6.5072 0 3.5789-0.42188 6.7679-0.9375 7.0866-0.58589 0.3621-0.9375-1.567-0.9375-5.1435 0-4.8262-0.36056-6.0835-2.3011-8.0241-1.2656-1.2656-3.3271-2.3011-4.581-2.3011-1.9924 0-2.3619 0.54658-2.9299 4.3345-0.3575 2.384-0.78116 7.341-0.94147 11.016-0.16032 3.6746-0.99088 11.111-1.8457 16.525s-2.1882 13.852-2.9632 18.75c-1.7214 10.881-4.3496 18.514-8.7162 25.312-1.8214 2.8359-4.0624 6.779-4.98 8.7625-0.91758 1.9834-2.9454 5.4985-4.5063 7.8113s-3.6966 5.8881-4.746 7.9451c-3.2869 6.4429-13.095 22.617-16.683 27.512-1.8899 2.5781-4.6421 6.5859-6.116 8.9062s-3.4311 5.0625-4.3492 6.0938-3.414 5.146-5.5464 9.1438c-3.1323 5.8726-4.0478 8.7539-4.766 15-0.48894 4.2521-0.89217 7.8366-0.89608 7.9655-4e-3 0.12891-0.429 0.23438-0.94462 0.23438-0.53704 0-0.9375-2.8454-0.9375-6.6613 0-6.5216 2.1758-15.487 6.7447-27.792 2.0632-5.5566 3.9105-6.7102 2.4864-1.5527-0.51165 1.853-0.74816 3.5513-0.52559 3.7738 1.4895 1.4895 26.911-38.503 37.729-59.355 1.3615-2.6242 3.917-9.1414 5.6789-14.483 1.7619-5.3414 2.9807-8.6569 2.7084-7.3679s-0.74957 4.4531-1.0606 7.0312c-1.3445 11.143 2.8477-1.5892 7.0997-21.562 0.99741-4.6852 3.1822-19.612 4.3543-29.749 0.63349-5.4787 0.034-10.095-1.311-10.095-0.41102 0-1.2702 4.1133-1.9093 9.1406-0.63909 5.0274-1.7328 12.516-2.4304 16.641l-1.2684 7.5 0.50993-13.594c0.28047-7.4766 0.23488-13.341-0.10132-13.031-0.33619 0.3094-1.4688 7.2703-2.5169 15.469-1.6399 12.827-6.5986 36.411-7.9372 37.749-1.5635 1.5635-1.438-1.9719 0.32063-9.0304 3.1638-12.698 4.7507-21.912 6.5774-38.188 1.2854-11.453 1.8618-14.335 2.4373-12.188 0.67713 2.5266 0.82887 2.6219 1.4929 0.9375 0.72111-1.8292 0.29317-9.5218-0.61109-10.985-0.85829-1.3887-3.1554-0.7316-3.1698 0.90675-9e-3 1.0584-0.25879 1.2565-0.70313 0.55828-0.37882-0.5953-0.71897 2.3578-0.75588 6.5625-0.10664 12.149-5.306 31.229-12.238 44.909-2.469 4.8724-3.7061 5.9703-2.1146 1.8767 4.2795-11.007 6.4403-17.541 6.3772-19.283-0.06-1.6592-0.25173-1.5143-1.0151 0.76708-5.1168 15.291-17.656 35.506-23.041 37.146-0.63871 0.19453-9.8557 8.7691-20.482 19.055-17.475 16.915-19.872 19.619-25.089 28.312-8.1793 13.629-8.9446 15.284-10.484 22.667-1.5324 7.3493-1.99 22.551-0.80937 26.883 0.57433 2.107 1.0449-0.59759 1.876-10.781 1.2752-15.626 3.0989-26.163 4.1905-24.213 0.39961 0.71407 0.16798 4.2392-0.51473 7.8337s-1.5457 12.477-1.9177 19.738c-0.57112 11.148-0.44594 13.628 0.80443 15.938l1.4808 2.7349 0.0375-5.2159c0.04-5.5617 2.2013-23.345 3.5864-29.51 0.97464-4.3378 3.8574-10.094 3.9136-7.814 0.0206 0.83752-0.56203 3.2221-1.2948 5.2991-2.2645 6.4184-4.1071 26.588-3.3701 36.891 0.25752 3.6002 0.76061 4.6042 2.9574 5.9019 2.2173 1.3098 2.9924 1.3698 4.7742 0.36989l2.1272-1.1938-2.1094-0.32018c-1.9617-0.29777-2.1094-0.79097-2.1094-7.0455 0-10.198 8.5825-52.012 11.87-57.832 1.3112-2.321 1.3199-2.312 0.89501 0.9375-0.40115 3.068-2.1809 10.322-5.5199 22.5-2.5202 9.1912-4.9003 24.671-4.9008 31.875-5.4e-4 6.8752 0.0515 7.0312 2.3432 7.0312 2.0848 0 2.4632-0.56964 3.4252-5.1562 0.59482-2.8359 1.1222-7.3844 1.1719-10.108 0.12098-6.6265 2.6672-13.863 10.793-30.674 3.7384-7.7344 9.0444-18.812 11.791-24.616 2.7466-5.8044 5.1321-10.415 5.301-10.246 0.68 0.68-3.9125 12.11-9.4872 23.612-9.931 20.49-12.43 26.767-15.046 37.794-2.6246 11.064-2.668 15.594-0.0585 6.1032 2.6364-9.5887 6.4636-20.372 8.2596-23.273l1.7417-2.8125-0.61081 2.8125c-0.33595 1.5469-1.5638 5.5547-2.7287 8.9062s-2.8282 10.102-3.6963 15c-0.86815 4.8984-2.0022 10.25-2.5201 11.893-0.81211 2.5762-0.58736 3.5432 1.6342 7.0312 3.1467 4.9405 6.1855 8.0353 9.0005 9.1662 3.077 1.2362 3.6652 1.1604 5.8128-0.74851zm8.0706-97.45c-0.0686-1.9901 2.9478-8.2586 3.4006-7.067 0.23116 0.60832-0.4301 2.7177-1.4695 4.6875s-1.9084 3.0406-1.9312 2.3795zm59.376-54.345c0.28597-1.9336 0.80089-7.2799 1.1443-11.881 0.34339-4.6008 0.95398-9.4523 1.3569-10.781l0.73254-2.4163 0.0852 2.3438c0.19055 5.2402-2.2039 26.25-2.9917 26.25-0.46597 0-0.61323-1.582-0.32727-3.5156zm-100.67 145.14c0-0.4805-1.3074-1.8046-2.9053-2.9424s-3.7057-3.3814-4.684-4.9857c-1.924-3.1552-2.4507-2.6804-0.73254 0.66028 1.2131 2.3587 6.575 8.0675 7.6187 8.1117 0.38672 0.0164 0.70313-0.36338 0.70313-0.8439zm-86.719-102.52c16.158-1.8465 29.996-11.458 22.915-15.916-1.0616-0.66841-3.108-0.13494-7.5 1.9552-14.876 7.0792-39.789 7.5808-51.435 1.0355-4.1833-2.3511-6.7766-1.8652-7.4168 1.3898-1.0882 5.5326 8.223 10.012 24.218 11.651 9.1223 0.93468 10.08 0.92893 19.219-0.11545zm-6.0692-11.004c9.4687-1.1478 23.413-5.2406 23.413-6.872 0-0.63769-1.7366-2.8271-3.8591-4.8653-4.6715-4.486-6.4534-8.3484-6.4534-13.988 0-2.3369-0.15789-4.2489-0.35088-4.2489-0.19298 0-2.1969 0.67574-4.4531 1.5016-2.4686 0.90366-8.0223 1.629-13.946 1.8213l-9.8438 0.31967-0.18338 5.1579c-0.27005 7.5954-4.5005 14.341-10.42 16.614-3.3676 1.2934-1.7942 2.291 5.6388 3.575 3.7617 0.64981 7.4723 1.305 8.2457 1.4559 2.7703 0.5406 4.378 0.47858 12.212-0.4711zm-13.101-3.6744c-1.0645-0.67348-0.81217-0.99557 1.1698-1.493 2.9495-0.74029 5.7203 0.0754 4.8792 1.4363-0.72499 1.173-4.2324 1.2059-6.049 0.0567zm-3.3301-5.6751c-0.35333-0.57171 1.2711-0.99237 4.1634-1.0781 2.6086-0.0773 5.235-0.18281 5.8366-0.23437 0.60156-0.0516 1.2695 0.43359 1.4844 1.0781 0.48384 1.4515-10.592 1.6776-11.484 0.23438zm1.4062-5.5298c0-0.92154 12.921-2.4865 13.743-1.6645 0.27891 0.27891 0.22902 0.95705-0.11085 1.507-0.74646 1.2078-13.632 1.3567-13.632 0.15752zm2.5255-5.3822c-1.5105-1.5105 0.97907-2.213 7.8424-2.213 7.1826 0 9.7054 1.0505 5.3353 2.2216-2.813 0.75387-12.421 0.74758-13.178-8e-3zm145.42 15.352c0.68406-0.90983 2.7543-2.2854 4.6006-3.0568 3.7052-1.5481 3.8136-1.6664 10.718-11.695 5.5183-8.0149 10.213-17.393 10.089-20.156-0.0506-1.1329-0.44702-0.61117-1.0014 1.318-1.5993 5.565-10.485 17.897-16.98 23.566-4.637 4.0474-15.028 16.911-10.948 13.553 1.253-1.0312 2.8379-2.6194 3.522-3.5292zm128.35-2.1822c1.6577-0.25022 3.2931-0.90658 3.6343-1.4586 0.42013-0.67979-0.5524-0.8287-3.014-0.46149-1.9988 0.29818-6.5874 0.82779-10.197 1.1769-4.4643 0.43181-5.963 0.8574-4.6875 1.3311 1.775 0.65922 7.5892 0.41955 14.264-0.58796zm-25.795-4.3198c-0.60157-0.60157-1.405-0.78253-1.7854-0.40215s-0.0833 1.0676 0.66035 1.5272c1.7509 1.0821 2.5415 0.29148 1.125-1.125zm26.899 0.56153c0.20239-0.18079-0.15271-0.9561-0.7891-1.7229-1.0217-1.231-1.4231-1.2199-3.4301 0.0951-2.9979 1.9643-9.6844 1.2919-15.728-1.5817-3.906-1.8571-4.9324-2.9462-6.9798-7.4053-2.0464-4.4571-2.4793-7.0252-2.9358-17.416l-0.53541-12.188-1.6264 6.7519c-1.3866 5.7563-1.4707 7.83-0.57021 14.062 1.8969 13.13 5.7987 17.504 17.749 19.9 3.6668 0.73524 13.848 0.3943 14.846-0.49713zm16.632-0.59123c1.6794-1.1507 3.4894-3.0492 4.0223-4.2188 0.53291-1.1696 1.4621-2.1266 2.0648-2.1266 1.7068 0 0.24159-14.772-2.4798-25-1.2793-4.808-2.326-10.118-2.326-11.799 0-1.6815-0.38834-4.4113-0.86297-6.0663-0.67747-2.3622-0.51345-3.4692 0.76307-5.1501 4.7203-6.2154 10.03-18.093 8.5089-19.034-1.1865-0.7333-6.5247 2.1543-6.5763 3.5573-0.0233 0.63129-2.1773 3.0152-4.7868 5.2976-4.0393 3.533-5.4734 4.2103-9.6482 4.5565-6.6851 0.55438-9.1858-0.77679-15.781-8.4006-2.0246-2.3404-2.5471-2.4724-7.8732-1.9894l-5.7048 0.51729 2.9277 4.7097c5.4994 8.8467 18.486 14.658 29.893 13.376 5.1569-0.57962 6.9902 0.26294 4.253 1.9546-4.837 2.9894-16.509 1.4461-25.767-3.4072-3.0067-1.5761-6.726-2.9586-8.2652-3.0722-2.3576-0.17411-3.0503 0.31025-4.3969 3.0746-1.8798 3.8589-3.3679 12.224-1.918 10.781 0.51818-0.51563 1.6499-3.1199 2.515-5.7872 0.86508-2.6673 2.2527-5.4095 3.0835-6.0938 1.3555-1.1162 1.4521-0.87988 0.94028 2.301-0.3137 1.9498-1.7549 5.9576-3.2027 8.9062-2.4213 4.9316-2.6323 6.2253-2.6323 16.142 0 7.2167 0.4003 11.401 1.2108 12.656 1.0421 1.6138 1.1278 1.1893 0.61515-3.0469-0.69422-5.7369 1.0282-6.9751 1.9562-1.4062 1.5693 9.4177 6.5876 16.072 12.155 16.119 4.7634 0.0402 5.0843-0.61897 4.1889-8.6033-0.44628-3.9794-1.096-13.679-1.4438-21.555-0.91388-20.693 0.98532-16.901 2.9226 5.8361 0.85671 10.055 1.8304 18.753 2.1637 19.329 1.5413 2.6634 6.9038 8.0016 8.8061 8.7661 3.6269 1.4577 7.5024 1.0495 10.675-1.1243zm-297.43-3.7672c0.89925-3.3555 0.67988-9.1406-0.3466-9.1406-0.51563 0-0.94326 1.582-0.9503 3.5156-7e-3 1.9336-0.26718 4.4648-0.5781 5.625-0.3109 1.1602-0.14341 2.1094 0.37222 2.1094 0.51562 0 1.1919-0.94922 1.5028-2.1094zm314.12-8.0385c9.8228-10.126 10.247-13.713 3.3969-28.758-2.8377-6.2329-6.3046-14.79-7.5016-18.516-0.62126-1.9336-1.7211-3.5156-2.444-3.5156s-2.1219 1.582-3.1088 3.5156c-0.98686 1.9336-2.6629 4.3012-3.7246 5.2613-2.1678 1.9604-2.0583 3.8159 0.78196 13.254 3.4408 11.434 4.6666 17.045 5.223 23.906 0.91611 11.299 1.0428 11.382 7.3773 4.8521zm-285.07-9.6978c1.9856-0.4964 3.4582-1.0546 3.2723-1.2405-0.46762-0.46763-12.004 1.9884-12.724 2.709-0.63768 0.63767 3.7598-0.0456 9.4519-1.4686zm-1.578-3.2959c4.9768-1.5688 12.607-7.0163 11.467-8.1872-0.30972-0.31825-3.2628 0.67828-6.5625 2.2145-12.178 5.6701-27.282 5.8604-37.64 0.47437-3.1505-1.6382-4.4531-1.9529-4.4531-1.0757 0 2.1958 5.0242 6.0773 9.8438 7.6049 5.8563 1.8562 19.861 1.3283 27.345-1.0308zm157.81-15.452c0-3.4137-0.40925-3.29-1.2922 0.39062-0.36716 1.5305-0.23028 2.5781 0.33687 2.5781 0.52545 0 0.95536-1.3359 0.95536-2.9688zm66.013-6.875c0.44885-4.1982 0.34603-5.2102-0.40542-3.9898-1.3734 2.2304-2.414 11.8-1.1475 10.552 0.52332-0.51563 1.2221-3.4688 1.5529-6.5625zm3.7529-13.906c-0.0429-0.85938-0.14845-3.0391-0.23438-4.8438-0.15313-3.2156-0.23591-3.2807-4.1406-3.2527-3.1623 0.0226-3.6459 0.22566-2.3438 0.98408 0.90235 0.52557 1.6406 1.8954 1.6406 3.0441 0 2.614 2.6236 6.475 4.0718 5.9922 0.59643-0.19881 1.0493-1.0646 1.0063-1.924zm-69.766-2.9688c0-0.77344-0.42188-1.4062-0.9375-1.4062-0.51563 0-0.9375 0.63281-0.9375 1.4062s0.42187 1.4062 0.9375 1.4062c0.51562 0 0.9375-0.63281 0.9375-1.4062zm105.28-0.11305c4.8253-2.4434 6.2816-4.1719 6.2816-7.4556 0-4.0046-0.82623-6.0251-2.4638-6.0251-0.72915 0-4.3754 0.84785-8.1028 1.8841-3.7274 1.0363-8.5701 2.3182-10.761 2.8486-2.1914 0.5305-3.9692 1.2647-3.9507 1.6315 0.0938 1.8563 4.7815 6.0935 8.0164 7.2462 4.8566 1.7305 7.3656 1.7009 10.981-0.12977zm-72.392-5.0432c3.6989 0 6.4858-0.40284 6.4858-0.9375 0-0.51563-1.657-0.9375-3.6822-0.9375-6.0268 0-18.085-1.9329-20.793-3.3329-2.583-1.3357-7.7873-2.6597-14.431-3.6714-7.2316-1.1011-7.4846-1.0659-7.7914 1.0856-0.39427 2.7657 2.7594 4.6086 9.1976 5.3749 2.8359 0.33753 8.9531 1.1763 13.594 1.8639 4.6406 0.6876 8.9993 1.0937 9.686 0.90251 0.6867-0.19121 4.1672-0.34766 7.7344-0.34766zm-27.499-3.484c-1.418-0.21481-2.5781-0.83232-2.5781-1.3722 0-1.1638 8.42-0.14671 9.7969 1.1834 0.90446 0.87373-2.1673 0.95411-7.2188 0.18889zm71.016-0.6754c15.567-2.9611 38.793-10.708 50.538-16.858 5.2833-2.7662 8.457-7.1886 7.7382-10.783-0.26606-1.3304-0.9429-4.5283-1.5041-7.1064-0.56121-2.5781-1.4789-7.0078-2.0393-9.8438-0.99588-5.0398-4.7123-18.534-6.003-21.797-1.1366-2.8734-1.8936-1.8054-3.4643 4.8874-0.84262 3.5904-2.2802 7.5198-3.1945 8.732-2.1377 2.834-9.287 7.6404-13.383 8.9969-4.129 1.3676-4.782 1.3311-4.782-0.2671 0-0.72744 1.9275-2.2557 4.2834-3.3962 8.8393-4.279 11.769-8.0999 14.711-19.187 1.7863-6.7319 1.6781-17.911-0.24949-25.781-0.44201-1.8047-1.2891-6.8672-1.8824-11.25-1.3785-10.183-3.2336-15.619-11.17-32.734-6.2733-13.528-13.173-24.957-11.933-19.766 0.71946 3.0115 4.9085 18.228 6.1927 22.494 0.54219 1.8013 0.9823 5.5982 0.97803 8.4375-5e-3 2.8393 0.50204 10.338 1.1252 16.663 1.5512 15.746-0.32951 43.472-4.9752 73.344-1.6784 10.792-4.4708 15.839-12.634 22.832-5.2313 4.4815-8.5901 6.534-13.3 8.1278-7.6008 2.5718-21.6 3.5399-28.643 1.9808-2.6656-0.59016-9.0654-1.7493-14.222-2.5759s-11.484-2.3012-14.062-3.277c-5.1672-1.9556-8.9062-2.2975-8.9062-0.81431 0 2.0116 10.348 4.3209 41.719 9.3099 7.4107 1.1786 21.897 0.99536 29.062-0.36749zm-181.02-2.2182c2.0358-1.1847 3.566-3.3382 5.1604-7.2626 2.7861-6.8576 3.4104-13.842 2.054-22.979-1.2948-8.7218-5.0147-23.743-5.9859-24.171-0.40039-0.17644-2.2524-1.7585-4.1155-3.5156-1.8631-1.7572-3.6858-3.1948-4.0504-3.1948s-1.5734-0.78969-2.6863-1.7549c-2.7021-2.3435-10.008-3.2088-16.087-1.9052-2.8122 0.60311-7.3083 0.792-10.434 0.43837-3.0209-0.34178-5.4826-0.28405-5.4706 0.12827 0.0121 0.41232 1.1722 2.8098 2.5781 5.3276 3.3203 5.9463 8.8066 9.0136 16.135 9.021 6.7713 7e-3 11.914 1.4964 14.666 4.248 1.8873 1.8873 2.224 3.153 2.224 8.3604 0 6.7803 0.11176 6.6942-6.5625 5.0534-4.7546-1.1689-5.2921-1.1669-14.88 0.0552-7.8269 0.99767-9.0464 1.7662-8.1937 5.1637 0.80017 3.1881 4.1127 3.9278 10.752 2.4009 2.9098-0.66922 8.5276-1.4688 12.484-1.7768l7.1937-0.56002 0.44011 5.1656c0.24206 2.8411 0.74399 6.318 1.1154 7.7265 0.94638 3.5888-0.1285 7.0469-2.416 7.7729-2.0301 0.64431-5.5486 5.6109-5.5546 7.8406-5e-3 1.7636 7.6795 0.71794 11.634-1.5832zm53.225-1.5138c3.7654-1.5897 4.2938-3.1515 4.9426-14.609 0.40447-7.1424 0.38297-7.0618 1.5687-5.8761 1.1564 1.1564 1.3386 9.3693 0.33914 15.285-0.41889 2.4794-0.28069 3.7161 0.41528 3.7161 2.3496 0 4.9879-11.713 4.0713-18.074-0.43268-3.0029-1.3131-4.1082-5.7769-7.2522-3.1888-2.246-6.561-5.7408-8.5477-8.8586-3.0638-4.8079-3.6948-5.2748-9.5205-7.0446-3.5922-1.0913-8.9617-1.9049-12.656-1.9178-3.5293-0.0123-7.999-0.38975-9.9326-0.83877-4.2764-0.99309-4.3588-0.4835-1.0478 6.4861 2.8688 6.0388 3.8469 15.593 2.3994 23.438-0.86094 4.6659-0.54256 7.8284 0.49549 4.9219 0.23019-0.64453 0.76575-1.1719 1.1901-1.1719 1.4926 0-0.21338 3.6731-3.4769 7.4858-1.8143 2.1196-3.0067 4.1501-2.6498 4.5122 1.2585 1.2766 18.891 2.5254 26.761 1.8953 4.3828-0.35087 9.5241-1.2946 11.425-2.0972zm-18.925-0.90006c0-0.83657 0.37331-1.521 0.82959-1.521 1.2592 0 3.8579-8.7644 3.8579-13.011 0-2.0641 0.42187-4.0136 0.9375-4.3323 1.6639-1.0284 1.0277 10.024-0.80951 14.062-2.0259 4.4535-4.8155 7.2355-4.8155 4.8023zm6.5625 1.0061c0-0.24289 1.3212-3.2649 2.9359-6.7155 2.4631-5.2635 2.8603-7.0546 2.4663-11.121-0.50021-5.1628-0.15097-7.1907 1.2384-7.1907 1.1033 0 1.0763 11.528-0.0383 16.334-0.89018 3.8382-3.5752 8.126-5.4875 8.7634-0.61316 0.20438-1.1148 0.17288-1.1148-0.07zm-13.125-1.2948c0-0.35349 0.77398-1.5136 1.72-2.5781 0.94596-1.0645 2.1962-4.6271 2.7783-7.9168 1.1526-6.5139 1.7637-7.7406 2.9223-5.8659 1.1533 1.8661-0.73945 9.1541-3.4543 13.301-2.1995 3.3595-3.9662 4.7226-3.9662 3.0601zm21.961-1.9219c1.9634-8.1729 2.3358-10.595 2.3728-15.427 0.0224-2.9344 0.46271-5.596 0.97833-5.9147 1.3276-0.82048 1.2137 17.587-0.12698 20.529-0.58547 1.285-1.6905 2.5765-2.4556 2.8701-1.104 0.42365-1.2626-9.4e-4 -0.76855-2.0578zm-27.42-0.83382c0.61364-1.2553 3.2115-7.1519 4.0787-9.2578 0.73901-1.7946 0.78816-1.7828 1.1465 0.27547 0.42462 2.439-2.5425 8.7748-4.3992 9.3937-0.67482 0.22494-1.0465 0.0398-0.82596-0.41133zm51.632 4.3231c5.8558-1.5252 11.677-4.3244 10.805-5.196-0.20438-0.20438-2.5811 0.46796-5.2817 1.4941-2.7005 1.0261-9.2144 2.5401-14.475 3.3644-5.2609 0.82431-10.198 1.8862-10.972 2.3598-2.2282 1.3644 12.762-0.15718 19.924-2.0223zm-64.222-0.69025c1.016-0.90234 3.016-5.1847 4.4446-9.5164 2.272-6.8894 2.5395-8.8909 2.1353-15.98-0.31173-5.4674-1.1289-9.612-2.5115-12.737-1.1272-2.5481-1.8252-5.5264-1.5511-6.6183 0.40863-1.6281-0.1735-2.2492-3.2355-3.452-2.0536-0.80667-3.7338-1.0747-3.7338-0.59572s1.2656 6.1364 2.8125 12.572c3.8477 16.008 3.5751 23.131-1.3182 34.453-1.2618 2.9193-1.2964 3.5156-0.20451 3.5156 0.72324 0 2.1462-0.73828 3.1622-1.6406zm155.23-0.3829c0.60236-0.0817-2.7017-0.43478-7.3423-0.78464s-8.8594-0.3885-9.375-0.0859c-1.0043 0.58948 12.284 1.8026 14.374 1.3121 0.6867-0.1612 1.7414-0.35992 2.3438-0.44162zm58.338 0.0586c0.34926-0.56511 2e-3 -1.661-0.7728-2.4353-1.1273-1.1273-1.8153-1.1897-3.4527-0.31341-1.6397 0.87754-1.8244 1.3601-0.93208 2.4353 1.3181 1.5882 4.2593 1.7669 5.1576 0.31341zm-154.43-3.4257c0.46472-0.90234 1.0697-4.1719 1.3443-7.2656 0.27466-3.0938 0.64755-6.2578 0.82866-7.0312 0.21443-0.91572-0.48826-1.5024-2.0145-1.6819-2.3023-0.27078-2.3381-0.17516-2.025 5.4118 0.1753 3.1281-0.10667 6.9077-0.62658 8.3991-1.3146 3.7712 0.74498 5.5622 2.4931 2.1679zm6.3309-5.9294c1.1074-6.5643 0.97815-7.4299-1.109-7.4299-1.0425 0-1.3345 0.99287-1.1718 3.9844 0.11914 2.1914-0.11939 5.4055-0.53009 7.1423-0.5839 2.4694-0.46965 3.0674 0.52406 2.7424 0.73608-0.2407 1.6983-2.95 2.2869-6.4392zm156.38 4.5232c1.8186-1.1602 3.3244-2.4258 3.3463-2.8125 0.0733-1.2987-1.5304-0.71899-3.2416 1.1719-1.9269 2.1292-3.8632 2.433-4.481 0.70312-0.23019-0.64453-0.73934-0.87366-1.1314-0.50918-0.89974 0.83635 0.094 3.5561 1.2993 3.5561 0.49606 0 2.3899-0.94922 4.2085-2.1094zm-241.31-1.4958c3.1542-2.3549 3.157-5.3509 5e-3 -5.1568-3.7653 0.23186-17.826 2.8381-18.398 3.4102-0.28763 0.28762-0.22637 1.4574 0.13611 2.5995 0.63059 1.9868 0.98852 2.0511 8.2839 1.4886 5.2714-0.4065 8.3498-1.1292 9.9734-2.3414zm188.87 1.7446c3.4942-1.3285 16.243-14.132 17.328-17.403 1.1575-3.4893 4.2327-20.889 5.5428-31.361 2.38-19.025 2.9753-58.199 1.078-70.948-1.0911-7.3323-7.5799-30.045-9.5942-33.583-0.58714-1.0312-1.6985-3.1406-2.4696-4.6875-2.1793-4.3716-8.1948-12.034-11.097-14.135-5.3165-3.8491-12.377-6.2003-16.547-5.5099-2.1397 0.35428-4.6171 1.0257-5.5053 1.492-1.4925 0.78359-1.4998 0.98236-0.0965 2.6213 0.83515 0.97538 2.0454 1.5712 2.6896 1.324 1.7384-0.66709 4.1782 3.3965 4.1782 6.959 0 3.1165-1.6663 5.3022-6.6935 8.7793-1.8947 1.3105-2.2802 2.5235-2.6815 8.4375l-0.46875 6.9069-3.75 1.875c-2.0625 1.0312-3.924 1.9787-4.1367 2.1054-0.21266 0.12673 0.0924 1.2819 0.67796 2.567 0.58554 1.2851 0.81559 2.9856 0.5112 3.7788-0.8177 2.1309-7.722 5.8065-12.287 6.5411-3.74 0.60184-3.9786 0.82302-3.8909 3.6056 0.0514 1.6304 0.43122 4.0192 0.84405 5.3082 0.63764 1.991 0.76466 1.7441 0.84405-1.6406 0.0514-2.1914 0.51532-3.9844 1.031-3.9844 0.51562 0 0.9512 0.31641 0.96793 0.70312 0.19611 4.5303 2.9906 27.931 4.1003 34.335 0.79284 4.5756 1.5589 11.219 1.7023 14.764l0.26073 6.4447 3.1384-0.5887c5.3894-1.011 11.649-0.93021 17.342 0.22369 6.2093 1.2584 8.1658 2.5653 6.4337 4.2974-0.86412 0.86412-2.1264 0.86264-5.5781-7e-3 -2.7074-0.68172-11.32-1.1074-21.908-1.0829-19.728 0.0457-19.532 0.0855-48.647-9.8883-15.799-5.4121-24.254-6.9216-23.534-4.2016 2.5135 9.5009-0.28307 22.093-6.8138 30.68-2.4386 3.2065-4.8344 6.0777-5.3242 6.3803-2.0966 1.2958-0.72035 4.274 3.094 6.6956 14.046 8.9168 37.022 18.085 59.304 23.663 9.212 2.3064 28.374 4.6218 38.317 4.6301 4.063 4e-3 7.8387 0.45772 8.3906 1.0096 1.7187 1.7187-18.346 1.1668-32.355-0.8899-7.0548-1.0358-18.445-3.3508-25.312-5.1445-17.579-4.5917-17.433-4.5606-15.767-3.3711 2.4128 1.7221 19.664 6.7752 30.938 9.0622 6.9881 1.4176 16.059 2.4064 25.781 2.8107 8.25 0.34302 15.176 0.78676 15.391 0.9861 0.81907 0.75996 12.255 0.31994 14.571-0.56065zm-44.025-8.1785c-25.999-3.5416-65.877-17.519-73.585-25.792-1.0254-1.1007-1.7024-2.1633-1.5044-2.3613 0.19801-0.198 5.0532 1.9937 10.789 4.8704 11.538 5.7864 22.461 10.355 29.612 12.385 11.139 3.1625 32.715 8.3257 38.457 9.2029 5.5514 0.84811 7.4691 2.3612 2.7933 2.2039-2.0625-0.0694-5.0156-0.29852-6.5625-0.50924zm-54.375-20.466c-3.0938-1.2656-7.3125-3.2172-9.375-4.337-4.2926-2.3304-9.4852-6.4077-8.1606-6.4077 1.6799 0 25.02 11.205 25.341 12.165 0.49439 1.4832-1.6706 1.0892-7.805-1.4203zm-0.46875 24.936c0-2.0321 0.42876-3.9597 0.95279-4.2835 1.3216-0.81678 0.20853-2.3345-1.7112-2.3334-1.2904 7.4e-4 -1.5945 0.95988-1.6349 5.1562-0.035 3.6363 0.31032 5.1553 1.1719 5.1553 0.797 0 1.2215-1.2839 1.2215-3.6947zm5.4472-0.68599c-0.3827-4.5286-2.6347-5.3919-2.6347-1.01 0 1.7617 0.28125 3.4844 0.625 3.8281 1.4891 1.4891 2.28 0.37998 2.0097-2.8182zm19.865 2.5057c0-0.51563-1.0547-0.9375-2.3438-0.9375s-2.3438 0.42187-2.3438 0.9375c0 0.51562 1.0547 0.9375 2.3438 0.9375s2.3438-0.42188 2.3438-0.9375zm-16.406-4.6875c-0.31867-0.51563-0.97639-0.9375-1.4616-0.9375-0.4852 0-0.88217 0.42187-0.88217 0.9375 0 0.51562 0.65771 0.9375 1.4616 0.9375s1.2008-0.42188 0.88217-0.9375zm-107.04-2.72c3.5206-0.50684 7.0011-1.4194 7.7344-2.028 4.4972-3.7324-2.9468-5.4036-14.04-3.1521-10.765 2.1848-12.497 3.3327-9.5215 6.3087 1.0326 1.0326 2.315 1.1691 5.3906 0.57396 2.2196-0.42952 6.9162-1.1956 10.437-1.7025zm107.51-4.78c-0.77344-0.49984-2.25-0.8856-3.2812-0.85725-1.875 0.0516-1.875 0.0516 0 0.85725 1.0312 0.44315 2.5078 0.82891 3.2812 0.85725 1.25 0.0458 1.25-0.0494 0-0.85725zm-7.0312-2.8125c-0.31867-0.51563-1.4232-0.9375-2.4544-0.9375s-1.6143 0.42187-1.2956 0.9375c0.31867 0.51562 1.4232 0.9375 2.4544 0.9375s1.6143-0.42188 1.2956-0.9375zm-190.09-6.3281 1.8052-5.3906-2.5705-4.0364c-1.4138-2.22-5.6117-6.7127-9.3288-9.9838-7.2453-6.3759-9.5629-7.118-20.602-6.5964-7.0699 0.33408-7.1984 0.46377-2.1788 2.1984 8.672 2.9967 20.343 13.434 26.595 23.782 1.7822 2.9502 3.518 5.376 3.8574 5.3906 0.33938 0.0146 1.4294-2.3992 2.4223-5.364zm92.351-6.7988c6.1515 0.11679 6.3281 0.0549 6.3281-2.2158 0-1.2848-0.59925-2.9352-1.3316-3.6676-1.6596-1.6596-12.873-2.7723-19.77-1.9617l-5.1484 0.60509v3.4647c0 1.9056 0.31641 3.7859 0.70312 4.1786 0.38672 0.39264 3.4453 0.43549 6.7969 0.0952 3.3516-0.34026 8.9414-0.56459 12.422-0.4985zm-86.787-11.306c1.1225-3.3199 2.0717-6.3526 2.1094-6.7393 0.0377-0.38671-4.1502-0.70312-9.3065-0.70312-10.194 0-11.793 0.97998-6.6022 4.0462 1.525 0.90086 4.3727 3.5082 6.3281 5.7941s3.9772 4.0396 4.4928 3.8973c0.51562-0.14238 1.8559-2.9752 2.9783-6.2951zm61.742 2.6134c0.87115-2.7832 0.71786-3.2702-1.6456-5.2276-1.4334-1.1871-2.6062-1.6803-2.6062-1.096 0 2.0558 2.1046 9.3927 2.6944 9.3927 0.32825 0 1.0291-1.3811 1.5574-3.0692zm95.635-5.5738c1.8832-1.9284 7.4379-11.146 8.4562-14.032 1.7639-4.9994 2.0054-15.584 0.42373-18.575-0.68173-1.2891-3.205-4.5054-5.6073-7.1475-2.4023-2.642-6.1559-7.8135-8.3413-11.492-4.4248-7.4481-8.4592-10.209-17.822-12.196-5.9321-1.2588-16.996-0.42021-16.996 1.2883 0 0.62231-0.84375 1.8951-1.875 2.8283-4.0219 3.6398-2.2937 4.7972 8.0535 5.3938 5.0068 0.28867 6.0811 0.70903 8.7256 3.4144 1.9075 1.9514 2.91 3.8283 2.7277 5.1072-0.25979 1.8231-0.76713 1.991-5.1571 1.7063-4.129-0.2678-5.4826 0.0996-8.9062 2.4173-2.6473 1.7922-6.3052 3.1277-10.625 3.8792-6.0438 1.0514-6.9341 0.98899-10.781-0.75611-4.5924-2.0832-13.509-2.6194-14.585-0.87723-0.75829 1.2269 3.0878 4.5068 5.3214 4.538 0.82056 0.0114 4.8989 1.7084 9.0629 3.7708s8.1618 3.75 8.884 3.75c0.72214 0 4.3719-0.80309 8.1106-1.7846 5.9586-1.5644 6.8644-1.6106 7.3388-0.37414 0.68961 1.7971-0.94493 2.7924-6.575 4.0034-7.5508 1.6242-10.894 1.1862-17.657-2.3134-10.771-5.5741-14.071-3.8756-4.4954 2.3136 8.0332 5.1921 11.102 6.0054 20.229 5.3613 5.0488-0.35629 7.9923-0.19983 8.3915 0.44605 0.91521 1.4808-1.3411 2.505-7.1173 3.2306-6.5399 0.82152-13.907-0.69187-18.474-3.7951-4.0331-2.7406-4.972-2.944-4.972-1.0773 0 2.0877 5.1132 5.8509 10.883 8.0098 4.1843 1.5655 6.9749 1.9231 13.374 1.7134 6.6807-0.21882 8.0864-0.0204 8.0864 1.1414 0 2.392-14.919 2.4324-21.17 0.0573-2.7325-1.0383-5.1387-1.7173-5.347-1.5089-0.64301 0.64301 7.5112 5.4447 12.446 7.329 3.4262 1.3082 7.7369 1.8711 16.101 2.1025 6.3217 0.17483 12.342 0.80817 13.482 1.4183 4.1295 2.21 14.502 2.6582 16.406 0.70891zm-155.78-17.35c-0.13444-10.888-0.57138-15.252-1.5275-15.255-0.38671-1e-3 -0.70312-0.63495-0.70312-1.4084s-0.80625-1.4062-1.7917-1.4062c-3.2658 0-11.242-11.298-15.953-22.598-6.1633-14.782-7.8076-22.777-7.7892-37.871 0.0152-12.432 0.17305-13.543 2.9906-21.049 3.1149-8.298 7.5383-15.171 12.393-19.256 2.5087-2.1109 11.657-6.8532 15.776-8.1783 1.3959-0.44903-7.0258-2.6107-10.171-2.6107-0.90275 0-2.0421-0.38267-2.532-0.85038-0.48984-0.46771-2.4726-1.2775-4.4062-1.7994-3.3383-0.90118-3.5156-0.83733-3.5156 1.266 0 2.9469-3.3231 5.1338-7.8012 5.1338-3.873 0-5.6859 1.4561-12.085 9.7067-1.6582 2.1379-3.9062 4.7484-4.9956 5.8012s-4.346 6.1284-7.2369 11.279c-4.0554 7.2255-5.6189 11.179-6.8437 17.305-1.8957 9.481-1.8203 19.922 0.19953 27.627 0.811 3.0938 1.7751 7.1135 2.1425 8.9327 0.90552 4.4844 4.8323 12.885 8.1305 17.395 1.4899 2.037 5.5167 6.2279 8.9485 9.3131 6.4171 5.7692 7.3341 7.0158 5.1608 7.0158-1.3092 0-5.7029-3.5715-14.774-12.01-3.6602-3.4048-5.5727-4.6212-6.0505-3.8482-0.70227 1.1363-17.787 0.82224-36.77-0.6759-7.3394-0.57924-7.7235-0.51658-7.1346 1.164 0.34228 0.97687 1.1273 2.198 1.7444 2.7136 0.61716 0.51562 1.6251 1.8817 2.2398 3.0358 0.61473 1.1541 2.138 2.3544 3.385 2.6674 1.247 0.31298 2.8984 1.5321 3.6696 2.7092 0.83305 1.2714 2.7948 2.4014 4.8326 2.7837 4.2254 0.79269 4.9901 0.1633 2.7752-2.2841-0.93613-1.0344-1.3956-1.8808-1.021-1.8808 0.98709 0 3.3596 2.5237 3.3596 3.5737 0 1.0062 3.1446 2.0192 6.3281 2.0385 1.1602 7e-3 2.1094-0.48971 2.1094-1.1039 0-0.6561 0.48336-0.49537 1.1719 0.38966 0.64453 0.82849 1.9807 1.6474 2.9692 1.8198 0.98852 0.1724 1.9729 0.8408 2.1875 1.4853 0.6637 1.9933-10.209 1.2606-21.797-1.469-8.3571-1.9685-18.124-3.8076-23.423-4.4105-3.0855-0.35109-8.1562-1.1711-11.268-1.8222-5.2789-1.1045-15.676-0.60361-17.104 0.82397-1.0532 1.0532-0.10255 15.107 1.1529 17.043 1.1107 1.7126 2.7993 2.1003 13.301 3.0536 14.826 1.3459 34.673 1.4232 35.468 0.138 0.31967-0.51723 0.87191-3.5414 1.2272-6.7203 0.92506-8.2768 2.5405-7.9553 4.1056 0.81721 1.2639 7.0843 1.4057 7.3472 4.5475 8.4313 2.0929 0.72214 11.056 1.1766 25.274 1.2814 12.117 0.0893 24.773 0.44487 28.125 0.79001s9.4688 0.51698 13.594 0.38189l7.5-0.24563-0.11315-9.1633zm-57.109-8.8023c-0.38908-1.2259-1.3836-2.7234-2.2101-3.3277-0.8265-0.60435-1.1581-1.4434-0.73696-1.8646s1.4752 0.15549 2.3423 1.2815c1.6052 2.0845 6.146 4.2928 7.0232 3.4156 0.26579-0.26579-0.74552-2.304-2.2474-4.5292-3.6915-5.4698-3.4706-7.4471 0.31627-2.8305 4.9083 5.9838 6.1937 7.0252 8.6719 7.0252 2.6334 0 3.1184-1.94 0.9375-3.75-0.77344-0.6419-1.4062-1.6252-1.4062-2.1851 0-0.55991 1.4756 0.54643 3.2792 2.4585 3.4692 3.678 5.472 4.1024 12.831 2.7194l3.4537-0.6491-4.5174-4.9289c-4.6384-5.061-11.767-18.047-11.058-20.145 0.21836-0.64661 1.1503 0.30091 2.0709 2.1056 4.975 9.7523 13.988 21.358 17.689 22.778 2.9959 1.1496 2.2-0.77282-2.722-6.5745-11.018-12.987-17.88-33.521-18.888-56.516-0.532-12.139 0.66008-17.177 6.8524-28.959 4.414-8.3982 11.74-17.916 13.789-17.916 0.48348 0 2.3205-1.2656 4.0823-2.8125 2.7745-2.436 5.013-3.5482 5.013-2.4907 0 0.17701-4.0078 4.3427-8.9062 9.2571s-8.9062 9.6895-8.9062 10.611c0 0.9219-1.0397 3.4502-2.3104 5.6185s-3.229 6.3976-4.3518 9.3986c-1.8459 4.9335-1.9894 6.6296-1.4983 17.703 0.6134 13.83 2.5127 24.611 5.7913 32.871 1.2279 3.0938 2.5301 6.661 2.894 7.9272 1.5013 5.2252 13.531 20.048 15.043 18.536 0.3277-0.32769-0.66453-2.1973-2.2049-4.1547-3.1812-4.0423-6.0176-9.4235-7.6863-14.583-2.1619-6.6839-0.43057-5.5958 3.5549 2.2343 2.1982 4.3186 6.125 10.142 8.7262 12.941 4.2606 4.5845 4.917 4.9719 6.6215 3.9074 2.3173-1.4472 4.6407 0.12763 2.842 1.9263-2.8687 2.8687-14.748 4.6813-34.116 5.2058l-19.351 0.52398-0.70742-2.2289zm290.82 1.7483c-0.28546-2.1914-1.0506-8.9414-1.7002-15-0.64965-6.0586-1.5673-11.016-2.0392-11.016-0.48101 0-0.61253 2.1626-0.29932 4.9219 0.30728 2.707 0.83267 9.1406 1.1675 14.297 0.64469 9.9269 0.835 10.781 2.4016 10.781 0.6195 0 0.79484-1.4877 0.46961-3.9844zm6.3025 3.2045c0.26511-0.42895-0.97562-8.6786-2.7572-18.332-1.7816-9.6539-3.2754-20.166-3.3198-23.361-0.0671-4.8393-0.21686-5.3524-0.89763-3.076-0.44937 1.5027-0.66854 2.9793-0.48704 3.2812s0.60194 5.6116 0.93432 11.799c0.58632 10.915 1.993 24.057 3.0356 28.359 0.50313 2.0763 2.5488 2.8552 3.4917 1.3295zm-16.273-13.89c-0.56317-7.1422-1.2538-13.73-1.5348-14.64-1.0358-3.3542-2.2536-0.39923-2.3466 5.694-0.0881 5.7756-0.17387 6.0289-1.0817 3.1959-1.1851-3.6981-3.1147-3.457-2.8591 0.35734 0.95304 14.221 1.4438 17.251 2.7944 17.251 1.1348 0 1.3736-1.2364 1.2223-6.3281-0.10347-3.4805-0.0928-6.75 0.0236-7.2656 0.36823-1.6299 1.7608 6.3926 1.8171 10.469 0.0452 3.2655 1.4172 5.5571 2.6932 4.4981 0.16247-0.13485-0.16538-6.0888-0.72854-13.231zm-8.892 5.5298c-0.33163-2.9648-0.65234-6.9726-0.7127-8.9062-0.10814-3.4642-0.9806-4.4698-2.1859-2.5195-0.7814 1.2643-0.75847 14.593 0.0273 15.864 0.3236 0.5236 1.2377 0.952 2.0313 0.952 1.2016 0 1.3421-0.90183 0.84001-5.3906zm-5.3937-1.8659c-0.22159-4.2414-0.62815-5.4476-1.9191-5.6932-1.8833-0.35839-4.4071 4.6847-2.6393 5.274 0.54779 0.18259 0.99599 1.5625 0.99599 3.0664 0 2.1316 0.42367 2.7344 1.9218 2.7344 1.7468 0 1.8962-0.48989 1.6406-5.3815zm-5.4374 1.1074c0-0.74301-0.63281-1.3509-1.4062-1.3509-1.4121 0-1.9272 1.979-0.80674 3.0995 0.87491 0.87491 2.213-0.18237 2.213-1.7486zm23.163-3.4494c-0.22424-1.1662-0.41624-0.43281-0.42664 1.6297s0.17307 3.0166 0.40772 2.1203c0.23464-0.89634 0.24316-2.5838 0.0189-3.75zm-29.491-0.39006c3.7287-0.59781 4.4729-2.1124 2.0329-4.1375-0.81551-0.67682-2.6629-3.5761-4.1053-6.4429-3.1171-6.1953-5.3596-22.014-4.3108-30.408 1.0669-8.5394 3.2979-5.9717 3.3236 3.8252 8e-3 2.9473 0.971 7.4017 2.4328 11.25 1.331 3.5039 2.6458 7.32 2.9218 8.4802 0.27596 1.1602 0.87444 2.1094 1.33 2.1094 1.1306 0 1.1783 0.22886-1.9843-9.5282-2.7875-8.5998-3.6929-15.502-1.8873-14.386 0.50885 0.31448 1.5852 2.9761 2.3919 5.9147 2.1333 7.771 7.1205 21.076 8.4521 22.549 1.9262 2.1303 4.7455 0.35503 8.0222-5.0515 1.7077-2.8176 3.4376-5.123 3.8443-5.123 1.5437 0 0.6028-2.0553-3.4793-7.6005-2.3203-3.1519-4.2188-6.1392-4.2188-6.6384s-1.4799-3.9845-3.2887-7.745c-3.7201-7.7344-6.6375-18.352-5.7081-20.775 0.91148-2.3753 1.9415-0.69339 3.7944 6.1959 0.90144 3.3516 2.5462 7.0673 3.655 8.2573s4.3364 6.8763 7.1723 12.636c2.8359 5.7601 5.6588 10.614 6.2731 10.787 2.4525 0.68953 3.9077-4.7655 3.3687-12.628-0.44361-6.4721-0.26089-7.9379 1.2473-10.007 1.4428-1.9791 2.546-2.4293 6.0116-2.4534 4.4754-0.031 8.4117-2.038 8.4117-4.2888 0-0.73729-1.4061-1.928-3.1247-2.6461-1.7186-0.71807-4.1443-2.5444-5.3906-4.0585s-5.43-4.5424-9.2972-6.7296-8.0859-4.6028-9.375-5.3681c-1.2891-0.76529-3.7148-2.0848-5.3906-2.9323-4.684-2.3688-3.9773-4.0859 1.4062-3.4169 8.5637 1.0642 14.215 3.2375 19.966 7.6783 13.966 10.784 18.705 11.361 18.705 2.2796 0-5.2794 1.6636-8.3187 6.9536-12.704l4.2982-3.563-5.8602-6.1184c-6.7486-7.0458-9.9334-8.6891-18.84-9.7209-3.5292-0.40884-6.9042-1.2523-7.5-1.8742-1.8398-1.9208 16.884-0.75389 21.175 1.3197 2.1561 1.0419 4.4147 1.4679 5.8594 1.1054 1.3576-0.34073 2.3509-0.18637 2.3509 0.36532 0 0.52545 0.63281 0.95536 1.4062 0.95536 1.7513 0 1.8525-1.7626 0.13898-2.4201-0.77865-0.2988-1.0962-1.3809-0.82372-2.8066 0.3486-1.8236-0.59838-3.422-4.4238-7.4668-4.5777-4.8402-5.6747-7.7761-3.212-8.5959 0.57997-0.19308 1.7367 1.354 2.5705 3.4379 1.6662 4.1643 3.8072 5.2441 2.852 1.4384-0.37494-1.4939-8e-3 -3.2381 1.0056-4.7856 2.4399-3.7238 1.2445-8.3535-2.4933-9.6565-4.9112-1.7121-8.8989-1.1708-18.39 2.4958-7.947 3.0703-10.055 3.505-16.639 3.4317-4.1469-0.04614-8.6169-0.35424-9.9333-0.68465-2.381-0.5976-2.3931-0.5702-2.304 5.2402 0.0805 5.2458-0.10143 5.8409-1.7854 5.8409-1.3968 0-2.9517-2.0323-6.0968-7.9688-3.8877-7.3382-7.9713-13.856-9.3974-15-0.32149-0.25781-1.3245-1.7344-2.229-3.2812-0.90446-1.5469-3.6149-4.2081-6.0232-5.9138s-6.2771-4.5376-8.5974-6.293-6.2227-4.3293-8.6719-5.7196c-4.087-2.32-5.6654-4.1049-3.6301-4.1049 4.0257 0 17.568 9.6898 26.75 19.14 5.7253 5.8925 15.552 20.119 15.552 22.515 0 0.74772 0.46707 1.6482 1.0379 2.001 1.4099 0.87138 0.38511-2.443-2.8122-9.0949-10.27-21.367-28.604-38.105-50.761-46.342-14.452-5.373-20.796-6.3438-37.347-5.7151-16.532 0.62797-16.647 0.6419-27.643 3.349-17.188 4.2314-27.541 13.611-34.679 31.421-5.502 13.728-5.078 28.203 1.4577 49.758 5.2918 17.452 12.983 30.081 24.317 39.926 6.4953 5.6424 15.018 11.168 17.226 11.168 0.76569 0 1.3922 0.39886 1.3922 0.88634 0 0.90468 0.66685 1.3278 9.4834 6.0174 2.7763 1.4768 5.7305 3.2848 6.5649 4.0178 2.1725 1.9087 24.745 2.4777 26.252 0.6617 0.58006-0.69892 1.8219-1.2708 2.7596-1.2708 0.93767 0 2.0074-0.48955 2.3772-1.0879 0.50042-0.8097-1.3117-0.9349-7.0865-0.48958-4.2882 0.33069-9.6485 0.17485-11.983-0.34836-6.6184-1.4832-15.832-5.8071-16.751-7.8612-0.48972-1.0946-3.205-2.7655-6.5692-4.0425-6.658-2.5272-13.807-8.403-24.148-19.849-7.6553-8.4725-9.963-13.075-12.425-24.778-1.7143-8.1499-1.4194-24.512 0.44188-24.512 0.95944 0 1.347 2.5661 1.6285 10.781 0.73735 21.524 3.6055 28.625 16.88 41.788 4.718 4.6787 10.005 9.0844 11.749 9.7905 1.7441 0.7061 3.382 1.5317 3.6398 1.8347 0.78873 0.92698 13.88 8.7978 18.439 11.086 6.5003 3.2628 12.193 4.022 21.562 2.876 9.9323-1.2149 13.135-3.1276 18.097-10.806 3.074-4.7573 3.7399-6.8287 5.0753-15.788 1.166-7.8227 1.3134-11.557 0.61028-15.469-2.6504-14.745-7.8827-27.452-14.283-34.688-2.0524-2.3203-4.7874-5.4281-6.0779-6.9062-4.2652-4.8853-13.792-11.464-20.454-14.125-9.4025-3.7549-20.378-4.3082-29.699-1.4972-7.3574 2.2188-15.335 6.3332-18.009 9.2878-0.90542 1.0005-2.8662 2.3244-4.3572 2.942-1.491 0.61761-3.6471 2.6601-4.7913 4.5388-1.6053 2.6359-2.1643 3.0391-2.4481 1.7657-1.1333-5.0854 10.048-15.14 22.952-20.641 8.7426-3.7263 9.5973-3.9049 18.54-3.8739 10.923 0.03787 16.776 1.7475 34.222 9.9966 12.361 5.8446 15.106 8.5322 22.054 21.593 7.4763 14.054 10.498 27.227 9.3991 40.981-0.94335 11.812-2.01 15.448-6.5879 22.461-4.6409 7.1093-7.4238 9.744-13.905 13.164-5.9555 3.1426-5.6227 5.2527 0.77205 4.8951 9.2678-0.51828 12.665-2.0233 18.884-8.3666 3.3487-3.4153 6.2872-7.3988 6.9525-9.4252 0.63377-1.9303 1.9008-4.9862 2.8157-6.7909 0.91487-1.8047 2.1594-6.6487 2.7656-10.765 1.3637-9.2588 0.43813-26.118-1.5232-27.745-0.72541-0.60203-1.3213-2.414-1.3242-4.0267-7e-3 -3.6457-1.4668-9.2681-3.6835-14.182-0.93041-2.0625-2.0056-4.7608-2.3893-5.9963-1.2576-4.0491-10.052-17.035-14.396-21.257-5.4788-5.3251-13.276-10.657-20.259-13.854-3.9786-1.8215-5.247-2.8189-4.5154-3.5505 1.4463-1.4463 9.4154 1.3583 15.518 5.4613 7.7191 5.19 15.993 13.919 20.581 21.711 4.9287 8.3717 10.427 20.477 11.88 26.157 0.56068 2.1914 1.4733 5.7221 2.028 7.8459 1.9389 7.4237 2.1726 23.177 0.49013 33.047-2.417 14.18-8.7087 25.782-16.437 30.311-2.3297 1.3653-3.6919 2.6636-3.0272 2.8852 2.0639 0.68797 11.678-7.6222 15.74-13.605 4.3447-6.3994 7.998-15.337 10.258-25.094 1.1527-4.9775 1.4088-9.5061 1.0603-18.75-0.25274-6.7031-0.77848-13.193-1.1683-14.422-0.53936-1.7007-0.39469-2.1322 0.60526-1.8053 1.8014 0.58898 3.4586 9.05 3.5674 18.214 0.21896 18.436-7.272 41.689-17.429 54.101-2.5311 3.0931-2.7689 7.2875-0.80639 14.225l1.326 4.6875-0.17223-3.9394c-0.19419-4.4414 1.4156-5.5161 2.2434-1.4977 0.29738 1.4435 1.6872 5.5777 3.0885 9.1871 4.5923 11.829 4.0533 11.073 7.417 10.399 1.659-0.33262 4.5984-0.85841 6.532-1.1684zm-62.859-46.449c-2.3547-2.3547-1.2951-3.6119 2.5287-3.0004 3.0997 0.49565 3.7426 0.30413 4.24-1.2631 0.32248-1.016 0.32068-2.5396-4e-3 -3.3857-0.43407-1.1306-0.0591-1.5383 1.4142-1.5383 2.7511 0 3.3102 2.0802 1.5001 5.5807-2.0978 4.0567-7.2933 5.9927-9.6792 3.6068zm-12.188-0.9375c-0.61875-0.61875-1.125-2.1168-1.125-3.3291 0-2.5805 4.5246-4.9308 11.15-5.7919 4.039-0.52496 4.1412-0.62549 5.304-5.2181 0.65211-2.5755 0.98878-5.0013 0.74818-5.3906-0.24061-0.38931-0.0552-0.70783 0.41191-0.70783 0.46717 0 1.8211-0.84278 3.0088-1.8728 2.6517-2.2998 4.69-1.0722 4.69 2.8248 0 1.444 0.62448 2.837 1.4062 3.137 1.5624 0.59955 1.9556 4.3485 0.45603 4.3485-0.52262 0-1.7324-0.48846-2.6883-1.0855-2.4683-1.5415-4.7466-0.34809-5.3799 2.818-0.70198 3.5099-6.1977 6.7049-11.533 6.7049-3.508 0-3.7977 0.17192-2.9522 1.7517 1.48 2.7654-1.1697 4.1376-3.4965 1.8108zm-8.8585-12.536c-1.4175-0.76902-3.6394-3.4943-4.9377-6.0562-2.4823-4.8986-4.6075-5.9419-5.618-2.758-0.94897 2.99-4.7268 4.9762-8.3471 4.3888-4.6965-0.76213-10.361-4.7428-12.168-8.5505-1.7592-3.7073-1.5227-9.9924 0.46617-12.389 1.7191-2.0713-0.60024-3.2462-5.021-2.5435-4.0818 0.64885-4.4432 0.03272-1.2198-2.0793 1.9703-1.291 3.067-1.3483 7.7344-0.40446 2.9912 0.6049 7.1904 2.1095 9.3316 3.3437 5.131 2.9573 13.44 12.233 17.086 19.074 3.7601 7.0547 6.0404 7.8083 8.5777 2.8348 1.0205-2.0002 2.67-4.0728 3.6657-4.6057 2.1968-1.1757 8.4752-1.2502 10.257-0.12181 1.9499 1.235 0.36251 2.903-2.7627 2.903-1.7128 0-3.3877 0.77502-4.3978 2.035-5.2418 6.5386-7.8243 7.5452-12.646 4.9292zm-13.075-9.1112c2.6997-2.1632 3.0072-4.1479 1.032-6.659-3.7011-4.7052-11.161-2.0046-11.161 4.0404 0 2.132 0.56799 2.9398 2.5781 3.6666 2.7114 0.98043 5.5033 0.59295 7.5512-1.048zm-10.663-8.6342 3.5823-3.2812h-2.7669c-3.4834 0-7.412 3.7442-5.7122 5.4441 1.3772 1.3772 0.71046 1.6718 4.8968-2.1628zm23.639-12.737c-2.5031-1.5716-5.1514-2.627-5.8851-2.3455-1.8952 0.72727-4.5695-4.0992-5.9961-10.821-1.3764-6.4861-0.35819-15.866 1.7989-16.571 0.99753-0.32605 1.1602 0.20866 0.69165 2.2741l-0.61254 2.7004 2.3137-2.7759c2.868-3.4409 4.0904-2.4925 2.4905 1.9321-0.66186 1.8303-0.95371 3.5775-0.64856 3.8827 0.30514 0.30515 0.55481-0.09666 0.55481-0.8929 0-2.1381 2.6523-4.0875 3.8846-2.8552 0.69851 0.69851 1.9755 0.32562 4.3098-1.2585 2.8548-1.9373 8.6806-3.1463 8.6806-1.8014 0 0.24733-1.6102 1.2712-3.5783 2.2752s-4.1291 2.4892-4.8023 3.3003c-1.5253 1.8378-1.0919 1.8474 2.5005 0.05529 3.4212-1.7067 5.0411-1.2169 6.5277 1.9741 1.0323 2.2157 0.80299 2.6962-3.0469 6.385-4.2782 4.0992-5.1839 6.9836-2.8112 8.9528 1.0631 0.8823 2.0646 0.78386 4.6875-0.46078 1.8346-0.87054 3.3355-1.9566 3.3355-2.4135s0.63281-0.83068 1.4062-0.83068c2.2207 0 1.6503 1.83-1.4062 4.5121-2.8744 2.5222-3.7442 4.4761-1.6406 3.6856 6.5443-2.4594 7.6918-0.71308 1.4062 2.14-5.545 2.5169-8.8815 2.2711-14.16-1.0433zm1.6275-13.475c0.88909-1.3569 2.6489-2.9375 3.9107-3.5124 2.9126-1.327 2.9512-2.6193 0.07826-2.6193-2.4454 0-6.5944 3.6887-8.6754 7.7128-1.1966 2.3139-1.1625 2.8698 0.31404 5.1233l1.6562 2.5277 0.54981-3.3824c0.30239-1.8603 1.2772-4.4927 2.1663-5.8496zm106.55 7.7675c-7.9362-2.277-10.955-7.2929-9.1459-15.198 0.60804-2.6572 1.5057-4.3267 2.3264-4.3267 1.0607 0 1.2061 0.94655 0.705 4.5899-0.46214 3.3603-0.23196 5.3621 0.85923 7.4722 1.8664 3.6093 3.4478 4.4412 9.9086 5.2128 9.9418 1.1873 12.188 1.647 12.188 2.495 0 1.1285-12.697 0.94331-16.841-0.24562zm-315.03 95.42c0-0.71827-0.52734-1.513-1.1719-1.7661-3.8296-1.5036-12.54-24.287-15.27-39.937-3.6836-21.123 1.1322-48.029 10.908-60.946 2.0771-2.7443 3.5586-5.2075 3.2923-5.4738-1.2556-1.2556-5.7448 1.1525-9.5479 5.1216-4.9051 5.1193-7.5895 10.306-12.013 23.213-10.414 30.384-9.113 48.142 5.2634 71.854 2.2958 3.7866 3.4617 4.6654 8.9485 6.7449 7.2429 2.7451 9.5901 3.0361 9.5901 1.1891zm268.53-6.3145c-1.9002-3.7435-2.6303-6.7165-2.8449-11.585-0.17122-3.8842-0.72966-6.6958-1.3725-6.9101-1.5908-0.53028-0.28095 10.277 2.0858 17.209 1.0563 3.0938 2.1021 6.2229 2.3239 6.9536 0.28064 0.92444 0.70158 1.0304 1.3837 0.34833 0.68207-0.68207 0.20264-2.5123-1.5759-6.0161zm-289.38 2.2298c-5.0858-5.3476-9.6802-17.835-11.986-32.578-1.6575-10.596-1.2509-17.018 1.8117-28.615 6.4227-24.322 8.091-28.674 13.712-35.77 1.7654-2.2286 2.8633-4.1706 2.4398-4.3155-0.42348-0.14493-2.425 0.69882-4.4479 1.875-10.079 5.8603-11.269 7.7934-16.645 27.032-3.9635 14.184-4.7885 21.52-3.5268 31.356 2.5078 19.552 13.218 43.594 19.42 43.594 1.4188 0 1.3002-0.39334-0.77766-2.5781zm110.44 0.98865c-0.33547-0.8742-1.2887-3.7219-2.1184-6.3281-0.82963-2.6063-1.9319-5.2833-2.4495-5.9489-3.0645-3.9409-7.544-15.883-9.0178-24.04-2.3483-12.998 0.57839-36.006 5.8688-46.138 3.4648-6.6358 11.976-11.526 20.119-11.56 4.6187-0.01916 5.2824 0.27913 9.5924 4.3105 5.1691 4.8351 9.5936 12.848 11.297 20.46 1.9938 8.9094-0.38425 10.709-7.5962 5.7479-8.5221-5.8622-8.608-4.4573-0.55509 9.0801 5.869 9.8662 9.6336 19.668 11.8 30.723 0.55899 2.8523 1.8182 7.8343 2.7982 11.071 1.6096 5.3162 1.6338 5.8566 0.25012 5.5901-1.6245-0.31285-2.8744-3.7381-5.9198-16.222-4.0942-16.784-8.5424-27.874-15.735-39.232-1.6084-2.5398-2.7831-3.4438-4.2092-3.2393-3.2999 0.47316-2.7507 2.9029 1.9921 8.8126 2.4867 3.0985 5.2299 7.5096 6.0959 9.8024 2.6862 7.1116 9.1029 29.194 10.201 35.106 1.6426 8.8434 1.0808 8.2788 7.7073 7.7468 3.7872-0.304 8.5989-1.6221 13.34-3.6543 6.4081-2.7467 7.4162-3.494 7.4162-5.498 0-2.3982-2.1195-3.9119-7.2656-5.1892-2.3968-0.59487-2.5781-0.43492-2.5781 2.2743 0 2.834-1.1856 3.8505-2.3305 1.9981-0.31138-0.50383-1.1792-4.7066-1.9285-9.3394-0.74931-4.6328-1.9489-9.8105-2.6658-11.506-0.71688-1.6953-2.2994-5.3677-3.5166-8.1608-1.6286-3.7371-1.9039-5.1815-1.0421-5.4688 1.6894-0.56312 1.4448-6.7815-0.67272-17.109-2.472-12.056-4.4638-17.243-9.2207-24.013-8.0681-11.481-19.236-15.375-29.58-10.314-15.007 7.3421-22.209 25.307-20.362 50.79 1.1416 15.749 6.3708 30.784 15.862 45.605 3.2643 5.0974 5.725 7.2347 4.423 3.8418zm35.513-53.202c-0.88447-1.3499-1.3738-2.6887-1.0873-2.9752 0.28645-0.28646 1.2445 0.58363 2.129 1.9335 0.88447 1.3499 1.3738 2.6887 1.0873 2.9752-0.28645 0.28646-1.2445-0.58363-2.129-1.9335zm139.9 52.682c-0.28989-1.1602-1.1828-4.4162-1.9843-7.2356-0.80147-2.8194-1.4572-6.7218-1.4572-8.6719 0-3.9466 0.9911-3.6246-12.422-4.0358-4.6519-0.1426-5.605 1.007-3.5156 4.2401 0.72212 1.1174 0.91174 0.93172 0.92315-0.90402 0.0134-2.1588 0.11709-2.2075 1.5811-0.74349 1.4262 1.4262 1.6644 1.4332 2.6554 0.078 0.90404-1.2363 1.4498-0.3654 3.2189 5.1364 1.1717 3.6438 1.9385 7.1796 1.704 7.8573-0.23445 0.67765-0.72764-0.10985-1.096-1.75-0.36833-1.6402-1.3302-3.5303-2.1376-4.2004-1.3011-1.0798-1.3908-0.84755-0.78959 2.0446 0.39543 1.902 2.032 4.5336 3.9241 6.3097 3.5734 3.3544 5.596 3.9795 4.5503 1.4062-1.5978-3.9319-2.1492-6.8081-1.3945-7.2745 0.44756-0.2766 1.5482 1.8271 2.4459 4.6749 0.98119 3.1127 2.1683 5.1778 2.9765 5.1778 0.92529 0 1.18-0.65752 0.81727-2.1094zm-7.9815-11.311c-0.59677-1.4515-1.0506-3.5609-1.0086-4.6875 0.062-1.6601 0.33757-1.4499 1.4538 1.1085 0.75753 1.7363 1.2114 3.8456 1.0086 4.6875-0.26748 1.1103-0.66676 0.80582-1.4538-1.1085zm41.102 7.8284c0-0.49748-0.84375-1.3561-1.875-1.908-2.2514-1.2049-2.4117-0.67066-0.40178 1.3393 1.6982 1.6982 2.2768 1.8427 2.2768 0.5687zm-180.14-1.8044c1.0614-0.67253 1.0436-1.1722-0.10786-3.0325-0.75824-1.225-1.9229-4.3367-2.5881-6.9148-0.66522-2.5781-1.5864-5.1773-2.047-5.7759-0.4998-0.6495-0.46938-1.316 0.0755-1.6527 0.50215-0.31034 1.5735 1.656 2.3808 4.3697s1.9284 5.5667 2.4914 6.3402c1.7692 2.4305 0.24716-5.2787-3.0059-15.225-2.2101-6.7577-3.2768-8.8907-4.1032-8.2049-0.81649 0.67762-1.7216-0.59714-3.3665-4.7414-1.6551-4.17-3.0673-6.1507-5.3426-7.4938-6.126-3.6159-7.7616-15.027-2.9012-20.24 1.9829-2.127 2.7663-2.3464 6.7309-1.8846 2.4677 0.28743 6.5831 1.6636 9.1453 3.0581s4.9349 2.2591 5.2728 1.9212c1.7139-1.7139-5.2125-16.968-9.9504-21.914-5.0215-5.2419-12.366-5.2723-20.2-0.08353-7.8314 5.1873-11.064 16.112-11.18 37.777-0.0697 13.084 0.10618 14.575 2.527 21.419 3.3777 9.5495 4.4988 10.723 7.9431 8.3116 2.5724-1.8007 14.292-6.7618 15.973-6.7618 0.48705 0 1.993-0.87116 3.3467-1.9359 2.6846-2.1118 4.3542-1.7427 4.3542 0.96244 0 1.3111-1.5276 2.2114-6.3281 3.7293-7.3274 2.317-14.508 5.734-14.894 7.0879-0.35402 1.2401 10.705 8.0202 16.319 10.005 5.0682 1.792 7.6379 2.031 9.4553 0.87936zm-76.74-3.3622c0-0.24535-0.81377-1.7842-1.8084-3.4197-0.99461-1.6355-2.5189-5.5984-3.3872-8.8064l-1.5789-5.8328-5.6565-0.59123c-3.1111-0.32517-13.188-0.59122-22.394-0.59122h-16.737l0.03713 2.5781c0.02042 1.418 1.1806 5.4268 2.5781 8.9085l2.541 6.3303 20.094 0.4829c11.052 0.2656 20.298 0.68648 20.547 0.93528 0.58606 0.58606 5.7649 0.5917 5.7649 6e-3zm162.76-13.382c1.8147-2.3905 1.5909-3.0469-1.0387-3.0469-2.4106 0-2.7613 0.63343-1.7747 3.2046 0.72848 1.8984 1.2759 1.8677 2.8134-0.1577zm50.307-2.7243c-0.63472-0.2568-1.9004-0.27243-2.8125-0.0348-0.91216 0.2377-0.39285 0.44781 1.154 0.46692 1.5469 0.0191 2.2932-0.17537 1.6585-0.43218zm-56.502-2.1344c0-0.48088-0.82831-1.1372-1.8407-1.4585-3.9063-1.2398-22.26-12.992-26.05-16.68-2.1914-2.1326-3.9844-3.5514-3.9844-3.1527 0 1.6084 11.291 11.384 19.18 16.606 7.6626 5.0722 12.695 6.9294 12.695 4.685zm-164.75-6.8601c-1.1331-6.3212-0.85951-27.314 0.38912-29.86 0.60683-1.2373 1.454-3.3044 1.8827-4.5934 1.8935-5.6941 7.9921-15.93 12.612-21.169 7.8377-8.8873 10.652-12.502 10.652-13.682 0-0.74324-2.0826-1.0212-6.5628-0.87589-6.4652 0.20969-9.3248-0.61793-19.961-5.777-1.5833-0.76798-3.5568-0.75789-7.5 0.03833-2.9432 0.5943-8.6338 1.3672-12.646 1.7176l-7.2943 0.63706-4.2143 5.2587c-5.6158 7.0076-9.2233 14.635-12.021 25.415-3.4717 13.379-3.9675 22.409-1.9403 35.339l1.7049 10.875 14.123-0.46971c7.7677-0.25833 16.865-0.17406 20.217 0.18727 12.076 1.3019 11.373 1.5044 10.558-3.0415zm-45.795-27.812c-2.1528-2.1687 3.4302-2.8287 25.632-3.0301 17.105-0.15518 20.223 0.14341 18.591 1.7801-0.7278 0.72973-43.539 1.9398-44.223 1.25zm5.8271-25.358c1.5523-1.6403 7.2812-2.7265 25.154-4.7695 17.118-1.9567 29.568-2.362 29.568-0.96277 0 0.47458-2.8477 1.1265-6.3281 1.4488s-13.711 1.4201-22.734 2.4396c-27.956 3.1588-26.828 3.0777-25.66 1.8439zm114.68 37.233c-0.0472-1.4167-6.5235-8.9207-6.5235-7.5587 0 0.52624 0.99189 2.0271 2.2042 3.3352s2.4647 3.0572 2.7831 3.8869c0.68789 1.7926 1.5913 1.9905 1.5362 0.33664zm228.79-6.2517c0-0.47357-1.3711-1.7333-3.0469-2.7994s-4.1016-3.3931-5.3906-5.1711c-1.2891-1.778-2.9766-3.4369-3.75-3.6865-0.77344-0.24958-3.6211-1.3303-6.3281-2.4016-6.3318-2.5058-6.3485-1.1549-0.0282 2.285 2.6915 1.4649 6.5938 4.2157 8.6719 6.1129s5.0438 4.1238 6.5907 4.948c3.3879 1.8052 3.2812 1.782 3.2812 0.7126zm-281.07-51.725c0.24637-0.73909 1.8772-0.73909 5.8753 0 8.6253 1.5945 11.752 1.3766 11.752-0.81895 0-3.2285-3.1904-4.0253-13.237-3.3062-8.1596 0.58401-9.2627 0.48345-9.2627-0.84441 0-1.7216 3.2328-2.014 6.8905-0.62341 2.8686 1.0906 3.5516-0.20897 2.7763-5.283-0.83969-5.4957-4.6136-8.777-6.5317-5.6791-0.39908 0.64453-0.95131 2.825-1.2272 4.8456-0.56448 4.1341-2.5087 5.5426-3.0938 2.2413-0.21101-1.1907-0.34691-0.26652-0.30201 2.0538 0.04901 2.5325 0.64372 4.6752 1.4879 5.3608 2.0076 1.6305 0.04819 1.5406-6.2348-0.28591-5.2282-1.5199-6.5417-3.9072-1.8699-3.3988 2.9273 0.31856 3.2732-1.4687 0.96572-4.9903-2.3074-3.5215-4.8335-3.0037-5.6128 1.1506-0.85108 4.5367 1.0557 7.9205 5.2835 9.3763 4.1228 1.4196 11.892 1.5466 12.341 0.20172zm188.25-12.068c0-1.0503-6.5404-5.6757-7.952-5.6236-1.0556 0.03893 6.1251 6.4911 7.2489 6.5134 0.38672 0.0077 0.70313-0.39272 0.70313-0.88976zm102.66 554.04c-0.70955-1.1481 2.0257-1.887 6.868-1.8555 2.857 0.0187 3.8882 0.30099 2.9702 0.81332-2.0599 1.1496-9.2979 1.9164-9.8382 1.0422zm-5.3093-7.7365c0.58474-0.58474 6.9236-1.1362 15.338-1.3343 8.6414-0.20348 13.596-0.0133 12.466 0.47844-2.9102 1.2667-29.018 2.0704-27.804 0.8559zm-303.43-27.039c-1.2183-0.47301-1.892-1.2915-1.5365-1.8668 0.43774-0.70829 5.7364-0.8759 17.17-0.54313 16.455 0.47892 21.165 1.0679 20.259 2.5334-0.64553 1.0445-33.172 0.93255-35.892-0.12353zm-32.043-74.91c-3.6646-6.8473-7.5923-25.849-8.0444-38.917-0.40349-11.663 0.62988-10.044 2.3923 3.75 0.59295 4.6406 2.2828 13.5 3.7552 19.688 3.9901 16.768 4.407 20.17 1.8969 15.48zm7.4941-58.248c-8.2407-0.70463-12.99-1.6957-20.156-4.2056-5.1562-1.8061-10.505-3.5154-11.887-3.7985-2.8554-0.58512-3.1033-1.4929-4.4388-16.259-0.54681-6.046-0.3997-13.874 0.45809-24.375 1.276-15.62 2.2654-20.374 6.3064-30.3 2.0645-5.0711 2.134-5.7932 0.98419-10.226-1.1413-4.3999-1.0878-5.0108 0.69083-7.8888 1.1608-1.8781 1.6946-3.8548 1.3415-4.9673-0.78078-2.46 1.2473-9.0121 3.3896-10.951 2.1436-1.9399 17.045-5.4714 29.405-6.9688 9.9859-1.2098 30.863-1.4821 34.13-0.44523 2.406 0.76362 2.718 3.6441 0.32308 2.9826-7.6533-2.1138-26.497-1.1609-45.703 2.311-12.474 2.255-15.656 3.3832-15.265 5.413 0.3778 1.962 5.1157 3.4628 16.934 5.3641 9.2642 1.4904 13.798 1.4955 43.711 0.0492 1.7556-0.0849 3.3573 0.32663 3.5594 0.91448 0.61772 1.7972-14.978 3.6213-30.658 3.5857-15.1-0.0342-27.227-1.8298-31.567-4.674-3.3064-2.1665-4.995-1.755-4.995 1.217 0 5.2644 5.2849 9.5511 14.062 11.406 2.8359 0.59942 10.883 1.4791 17.883 1.9549 11.856 0.80588 17.736 0.5248 32.165-1.5376 3.6873-0.52703 4.4951-0.40126 4.1461 0.64555-0.76365 2.291-13.298 3.9012-30.129 3.8708-17.842-0.0323-26.013-1.451-34.13-5.9258-5.9544-3.2826-6.8111-3.3432-6.8111-0.48125 0 3.1336 7.0643 9.3604 12.73 11.221 8.2234 2.7002 23.906 4.6514 42.114 5.2398 16.067 0.51919 17.537 0.70106 15 1.8559-1.8566 0.84516-7.5274 1.3787-16.684 1.5697-13.158 0.27451-13.964 0.40048-15.672 2.4488-0.99013 1.1877-1.8143 3.0838-1.8314 4.2135-0.01715 1.1297-0.45306 2.3148-0.96869 2.6335-1.3747 0.84962-1.1443-1.6199 0.52367-5.6118 0.80364-1.9234 1.331-3.6113 1.1719-3.751-0.15911-0.13964-4.8999-1.002-10.535-1.9163-5.6352-0.91431-11.331-2.2284-12.656-2.9203-1.3257-0.69183-2.9587-1.2605-3.6289-1.2636-0.67014-3e-3 -2.5434-0.69094-4.1628-1.5284-2.8273-1.462-3.0113-1.4399-4.6279 0.55645-3.8088 4.7037-6.6725 17.201-7.8477 34.247-0.28439 4.125-0.7529 8.4492-1.0411 9.6094-0.38306 1.5418-0.11118 2.1094 1.0106 2.1094 0.84404 0 4.0418 1.2656 7.1061 2.8125s6.1109 2.812 6.7701 2.8115c0.88774-7.6e-4 1.2778-2.8578 1.5038-11.016 0.34306-12.382 3.2784-29.041 5.4924-31.171 1.6452-1.583 1.7014-2.429-1.0591 15.938-0.81375 5.4141-1.8034 13.69-2.1993 18.392l-0.71971 8.548 4.7153 1.5004c2.5934 0.82521 6.1918 1.7562 7.9965 2.0689 1.8047 0.31268 3.934 0.74925 4.7319 0.97014 1.2299 0.3405 1.4858-1.0475 1.6819-9.1204 0.29976-12.34 1.6332-22.674 3.341-25.892 1.2606-2.3754 1.3242-2.0181 0.88 4.9393-0.26339 4.125-0.78728 10.453-1.1642 14.062-0.37692 3.6094-0.51269 8.7657-0.30171 11.459 0.37209 4.7492 0.48151 4.9144 3.6493 5.5087 1.7962 0.33696 10.827 0.34614 20.068 0.0204 14.2-0.50058 16.802-0.38526 16.802 0.74478 0 2.021-9.6433 2.728-29.338 2.1509-21.532-0.63089-28.916-2.0732-42.576-8.3169-3.2012-1.4632-6.3198-2.6603-6.9304-2.6603-0.80012 0-0.94194 1.6093-0.50784 5.7625 0.33127 3.1694 0.6023 7.3784 0.6023 9.3534 0 4.5085 1.4779 5.5429 12.446 8.711 11.876 3.4302 21.939 4.4178 44.976 4.4137 18.711-4e-3 24.443 0.67063 17.812 2.0945-5.0611 1.0868-31.828 1.3963-42.422 0.49042zm33.831-40.821c-0.08207-12.568 1.7383-26.015 3.7788-27.915 0.79713-0.74201 0.91402 0.31849 0.45858 4.1604-0.3362 2.8359-1.0211 10.852-1.522 17.812-1.3282 18.458-2.6152 21.274-2.7153 5.9418zm72.576-94.441c-5.0734-1.6045-9.8438-4.1609-9.8438-5.2752 0-1.352 1.5292-1.1345 7.8725 1.1199 6.4351 2.287 8.2801 3.4227 7.5306 4.6354-0.63048 1.0201-0.88506 0.99815-5.5594-0.48012zm-17.682-12.215c-3.277-3.277-6.5211-11.249-7.7052-18.934-0.94384-6.126 0.9875-5.5314 2.8116 0.8656 3.4579 12.126 4.3914 14.408 7.1165 17.391 1.5417 1.688 2.8032 3.254 2.8032 3.48 0 1.2489-2.2028 0.0206-5.026-2.8026zm15.573-4.7562c-2.707-1.2302-4.9219-2.7064-4.9219-3.2804 0-0.64377 0.79374-0.48776 2.0714 0.40715 1.1393 0.79798 4.5143 1.9315 7.5 2.5189 2.9857 0.58741 5.4286 1.435 5.4286 1.8835 0 1.5038-5.1103 0.72838-10.078-1.5292zm-26.25-42.183c-1.1436-1.2989-1.5954-3.2852-0.74723-3.2852 1.5661 0 5.2004 2.3983 5.2004 3.4317 0 1.6476-2.9593 1.5502-4.4531-0.14658zm2.701-5.4808c-0.57428-0.69197-0.7814-1.5209-0.46027-1.842 0.76217-0.76217 4.0874 1.024 4.0874 2.1956 0 1.3349-2.4217 1.0988-3.6271-0.35361zm2.1823-4.4292c-0.33987-0.54993-0.39284-1.225-0.1177-1.5001 0.67155-0.67154 2.5 0.51171 2.5 1.6178 0 1.1981-1.6185 1.1181-2.3823-0.1177zm0.9375-4.6875c-0.33987-0.54993-0.39284-1.225-0.1177-1.5001 0.67155-0.67154 2.5 0.51171 2.5 1.6178 0 1.1981-1.6185 1.1181-2.3823-0.1177zm1.2104-6.5752c-1.6686-0.97188-2.2926-3.6749-0.84842-3.6749 0.43571 0 1.4904 0.7715 2.3438 1.7144 2.5668 2.8363 1.7798 3.868-1.4953 1.9605zm1.6938-5.4945c-1.5009-1.5666-2.4305-3.1468-2.0657-3.5116 0.90138-0.90139 5.6094 3.9157 5.1561 5.2756-0.20701 0.62102-1.5275-0.13275-3.0904-1.764zm2.551-4.0398c-0.49872-0.64453-1.1565-1.8752-1.4618-2.7349-0.51816-1.4591-0.37232-1.4591 2.1923 0 2.8555 1.6246 3.7129 3.9068 1.4678 3.9068-0.7103 0-1.6995-0.52734-2.1982-1.1719zm-0.29456-8.2464c-1.6524-2.0863-2.78-4.0175-2.5059-4.2916 0.7701-0.7701 8.218 6.3033 7.6333 7.2494-0.94644 1.5314-2.0981 0.867-5.1274-2.9578zm1.8311-5.6599c-1.0742-1.0742-1.7462-2.16-1.4934-2.4129 0.68368-0.68369 6.259 2.3918 6.259 3.4526 0 1.5871-2.7356 0.99031-4.7656-1.0397zm2.3556-4.5995c-4.9412-3.1809-7.4189-5.4935-6.6787-6.2337 0.39986-0.39985 1.8701 0.0135 3.2672 0.91847 1.3971 0.90501 3.7004 2.0883 5.1184 2.6296 2.4813 0.94717 3.4096 2.9887 1.8088 3.978-0.42315 0.26151-2.0052-0.32007-3.5156-1.2924zm-2.2042-8.2641c-5.6803-3.2843-8.15-5.8083-5.6834-5.8083 0.83994 0 10.019 5.0955 13.048 7.2432 0.22344 0.15843 0.0113 0.68296-0.4713 1.1656-0.54508 0.54508-3.1566-0.44017-6.8929-2.6005zm-1.9981-6.928c-3.2387-2.1627-5.4676-4.0724-4.9533-4.2439 1.6308-0.54361 13.441 5.4824 13.441 6.8582 0 2.2147-2.3312 1.4966-8.4873-2.6143zm74.307-30.155c-8.4626-7.8373-9.8468-9.0381-10.418-9.0381-0.31629 0-1.1662-0.94922-1.8887-2.1094-1.247-2.0024-1.2228-2.0396 0.47761-0.73359 0.98519 0.75669 3.9316 3.3468 6.5475 5.7558 2.616 2.409 6.5183 5.279 8.6719 6.3776 3.9572 2.0188 5.1264 3.8345 2.4692 3.8345-0.79553 0-3.4322-1.8391-5.8594-4.0869zm11.082 0.75965c-3.6686-2.5899-3.1978-3.0163 0.9576-0.86745 1.5213 0.78668 2.7659 1.8414 2.7659 2.3438 0 1.1784 0.0839 1.2116-3.7235-1.4763zm-12.683-8.7383c-3.6411-2.2604-17.344-15.644-17.344-16.941 0-0.54669 0.31641-0.98669 0.70312-0.97777 0.96176 0.0221 4.9219 4.2722 4.9219 5.2822 0 0.44843 3.375 3.7072 7.5 7.2418 6.6277 5.6791 8.1306 7.1567 7.2656 7.1438-0.1289-2e-3 -1.5-0.7892-3.0469-1.7495z"/>
</svg>
